<svg width="67" height="58" xmlns="http://www.w3.org/2000/svg"><path d="M44.14 55.752c.83-1.17 1.67-2.34 2.54-3.48a10.1 10.1 0 0 1 1.16-1.09c1.63 4.81 1.63 4.81 4 5.41l5.71-10.47a31.06 31.06 0 0 1 1.61 2.71 31.92 31.92 0 0 1 1.58 4 2 2 0 0 0 2.35 1.64 7.11 7.11 0 0 0 .53-1.26c.65-3 1.26-6.09 1.91-9.13a54.32 54.32 0 0 0 .86-14.28 74.39 74.39 0 0 0-5-22.34c-.7-1.86-1.55-3.66-2.39-5.46a1.72 1.72 0 0 0-2.36-1.07c-.63 2.68-1.21 5.39-1.91 8.07-2.39 9.17-5.78 17.92-11.3 25.7a13.54 13.54 0 0 1-2.19 2.3v-2.42a4.68 4.68 0 0 1 .95-3.08c3.07-4.06 3-8.61 1.86-13.28a1.11 1.11 0 0 0-.31-.63 3.82 3.82 0 0 0-1.54-.84c-.8-.08-1 .6-1 1.31-.14 2.53-1.55 4.44-3.09 6.4-3-1.17-3.53-1.2-5.8-.4-1.73.61-2 .58-2.78-1.05-.51-1.06-.71-2.27-1.13-3.38-.15-.4-.52-1-.83-1a2.43 2.43 0 0 0-1.44.57 2 2 0 0 0-.57 1c-1.17 4.09-1.35 8.08 1.67 11.54a3.74 3.74 0 0 1 .92 3.05c0 .42-.07.84-.1 1.26a18.9 18.9 0 0 1-3.85-2.58c-6.88-6.6-11.85-14.56-15.92-23.12-1.19-2.5-2.26-5.05-3.39-7.57a1.72 1.72 0 0 0-2.12 1.49c-.48 1.93-1 3.86-1.32 5.82a74.39 74.39 0 0 0-.74 22.97 54.32 54.32 0 0 0 3.53 13.86c1.21 2.87 2.38 5.75 3.59 8.61.216.404.47.786.76 1.14a2 2 0 0 0 2-2.05 31.91 31.91 0 0 1 .8-4.23 31.09 31.09 0 0 1 1.07-3l7.54 9.19c2.25-1 2.25-1 2.95-6.07.468.248.916.532 1.34.85 1.07 1 2.11 1.94 3.15 2.94.66.63 1.31 1.21 2.31.79 1-.42 1.08-1.33 1.12-2.21.06-1.19.09-2.4 0-3.59v-.09c2.46 2.88 6.33 2.6 8.2-.86l.18-.36c.15 1.17.29 2.33.46 3.49.17 1.16.43 2.36.72 3.52.21.85.47 1.73 1.52 2s1.66-.5 2.19-1.24z"/></svg>