<svg width="53" height="76" xmlns="http://www.w3.org/2000/svg"><g fill="none" fill-rule="evenodd"><path fill="#F8E71C" d="M27.164 2.282l-2.323 3.38-1.775 2.855v1.948l3.34 2.28 2.545-1.215 1.167-2.334-1.167-3.533zM8.893 7.492L5.842 11.23v1.818l2.264 2.42.787-1.074 1.873-1.346V11.48l-.782-1.993z"/><path fill="#FFF" d="M44.041 19.737l3.1-1.302 2.458 1.302-.776 8.51h-5.79zM22.68 17.19l-1.166 14.146h6.463l1.606-14.147-4.035-.706zM5.447 19.146l-1.432 7.847h6.902v-8.775H7.466z"/><path fill="#F8E71C" d="M48.466 8.686l1.818 2.898v2.73l-.91 1.514-1.957.901-1.9-.901-.804-2.415.805-1.829z"/><path d="M10.124 25.293c.42.202.86.366 1.31.49a2.56 2.56 0 0 1 1.54 1.21 1 1 0 0 1-.15 1.64c-.28.23-.57.44-.86.66 0 4.76-.17 9.52.64 14.21a13 13 0 0 0 1.58 4.2 3.34 3.34 0 0 0 3.71 1.62c.9-5.25 1.18-10.56 1.8-15.82-2.05-1.71-1.94-3.38 1-4.52.18-2.11.38-4.33.57-6.54l.55-6.1 2.92-.64.45-2.46a13.71 13.71 0 0 1-2.33-1.83c-1.15-1.42-1-3 .2-4.75.69-1 1.48-1.89 2.13-2.89.45-.69.72-1.49 1.11-2.22.15-.29.4-.69.64-.72.346.014.663.197.85.49.81 1.57 1.57 3.16 2.31 4.77a6.22 6.22 0 0 1 .57 1.75c.29 2.26-.95 3.73-2.67 4.91a7.6 7.6 0 0 1-1.23.54l-.4 2.56 3.67.35a24.88 24.88 0 0 1-.52 6.63c-.36 2.09-.53 4.21-.76 6.19.26.21.33.3.42.33 1.85.66 2.17 1.11 1.17 3.15-.72 1.47-.49 3.05-.55 4.64-.07 1.83-.45 12.11 1 12a43.4 43.4 0 0 0 4.27-.58c1.39-.21 1.69-1.56 2.12-2.69.54-1.4 1.013-2.824 1.42-4.27a85.64 85.64 0 0 0 2-11.28 4.79 4.79 0 0 0-.05-1.4c-.26-1.61-.06-2 1.43-2.61l.59-.22c.06-.6.13-1.26.19-1.93.12-1.4.27-2.8.34-4.2a1.2 1.2 0 0 1 1.08-1.28c.56-.11 1.11-.28 1.79-.46l.32-1.42a9.46 9.46 0 0 1-1.74-1.85c-.8-1.57-.36-3 1-4.37a21.91 21.91 0 0 0 1.88-2.26c.47-.62 1.11-.84 1.51-.24 1.35 2 2.59 4.09 1.89 6.67-.36 1.32-1.26 1.58-2.44.79 1.7-1.9 1.71-2.94 0-5.65a10.94 10.94 0 0 0-2.63 3 1.9 1.9 0 0 0 .42 2.17l1.13-1.25c1.78 1.35-.07 3 .64 4.54l1.28.1a1.13 1.13 0 0 1 1.17 1.21 19.31 19.31 0 0 1-.13 2c-.15 1.55-.31 3.1-.46 4.67.58.3 1 .49 1.48.76 1.3.82 1.26 1.8-.08 2.54l-.41.23c-.74 6.06-1 12.18-2.3 18.18a16.35 16.35 0 0 1-2.7 6.81 9.12 9.12 0 0 1-6.5 3.1c-3.63.34-7.29.46-10.94.68a3.08 3.08 0 0 0-.59.2c-.07 1.45-.2 3-.16 4.45 0 .4.52.87.91 1.15a12.39 12.39 0 0 1 4.15 4.8 23.72 23.72 0 0 1 1.13 3.06 1.38 1.38 0 0 1-.47 1.69 5.45 5.45 0 0 1-3.31 1.16 143.31 143.31 0 0 0-8.14-.13c-3.44 0-6.88.21-10.32.31a1.84 1.84 0 0 1-2.13-1.94 4.62 4.62 0 0 1 .75-2.82 26.31 26.31 0 0 1 6.14-6.19c.49-.293.782-.83.76-1.4 0-1.33.11-2.72 0-4-1.46-.21-3-.07-4.45-.24a19.84 19.84 0 0 1-4.9-1.23 10.16 10.16 0 0 1-4.17-2.75c-1.48-1.74-1.92-3.96-2.38-6.09a28.27 28.27 0 0 1-.53-7.22c.25-3.94 1.2-7.81 1.7-11.71a2.73 2.73 0 0 0-.58-1.53c-.82-1.33-.79-1.71.68-2.35a1.93 1.93 0 0 0 1.11-1.73c.33-2 .62-4 .95-6.1.48-.11.92-.22 1.37-.31 1.43-.29 1.43-.29 1.52-1.94-.38-.25-.82-.51-1.24-.8a3 3 0 0 1-.82-4.41c.45-.69 1.06-1.28 1.58-1.93.52-.65.8-1.08 1.16-1.64.36-.56 1.08-.72 1.41 0a42.68 42.68 0 0 1 1.73 4c.61 1.75-.07 3-2.06 4l-.32 2.16 2 .08a1 1 0 0 1 1.06 1.21c-.1.93-.21 1.87-.32 2.8-.12 1.09-.29 2.17-.35 3.26.04.666.04 1.333 0 2-.17.25-.63-1.08-1.09-1.23l-.43-3.3a4 4 0 0 1-.55.66c-.69.5-1.3.45-1.73-.23a3.37 3.37 0 0 1-.42-3c1.16 0 .83 1.24 1.68 1.7l.8-2.42c-1 .06-1.78.08-2.54.15a1.27 1.27 0 0 0-1.26 1.16c-.25 1.63-.5 3.26-.74 4.8l4.78.6a1.37 1.37 0 0 0 .39-.1zm12.84-5l-.56 8.62 4.7.49.94-7.3-1.87-1c-1.23 1.56-2.11 1.96-3.2-.79l-.01-.02zm2.7-10.18c1.37-.49 1.22.69 1.52 1.44a3.48 3.48 0 0 0 2-3.77 10.71 10.71 0 0 0-1.93-4.37c-1 1.34-2 2.55-2.83 3.84a5.16 5.16 0 0 0-.8 2c-.2 1.26.42 2 1.76 2.19l.28-1.33zm22.52 16.23l.16-3.1c-2 .88-2.54.58-2.94-1.34a2.9 2.9 0 0 0-.8-2l-.62 6 4.2.44zm-41-12.12c1-.67 2.57-.31 2.85-1.87.24-1.33-.52-2.36-1.42-3.55-.71.93-1.39 1.7-1.94 2.56-.72 1.15-.62 1.58.51 2.86zm21.41 3.34a8.66 8.66 0 0 0-4.2-.29l.45 2.53c.44-.54.78-1.38 1.25-1.45.47-.07 1.13.54 1.77.9l.73-1.69zm17.93 2l.41 2.76a3 3 0 0 0 .72-2.76h-1.13z" fill="#000" fill-rule="nonzero"/></g></svg>