<svg width="56" height="82" xmlns="http://www.w3.org/2000/svg"><g fill="none" fill-rule="evenodd"><path fill="#9013FE" d="M19.753 1.83l-6.534 4.383L2.31 26.2l9.724 53.776 18.689.84 9.598-3.424L54.517 26.2l-3.299-9.03-6.246-14.59-11.982-.75z"/><path fill="#F8E71C" d="M21.391 18.533l-.727 9.626h-3.41v3.968l3.41.75.727 5.9 2.175.651.912-6.551 3.983-.75.95-3.147-4.933-.82v-9.627z"/><g fill="#000" fill-rule="nonzero"><path d="M40.68 78.48c-2.83 1-5.36 1.77-7.74 2.83a6.07 6.07 0 0 1-4.31.45 30.78 30.78 0 0 0-6.65-.53c-3.1-.07-6.2 0-9.29 0a2.32 2.32 0 0 1-2.44-2.09c-1.39-8.2-2.75-16.38-4.19-24.55C4.67 46.65 3.23 38.73 1.8 30.8a15.6 15.6 0 0 0-.73-3c-.64-1.6 0-3 .71-4.23 2.48-4.37 5.07-8.68 7.58-13 1-1.72 1.84-3.52 2.84-5.24a3.71 3.71 0 0 1 1.22-1c1.51-1 3-2 4.57-2.94A3.12 3.12 0 0 1 19.5.85c4.71 0 9.42 0 14.13.07 2.47 0 4.94.33 7.41.48 1 .06 2.07.05 3.1.07 1.85 0 2.12.35 2.25 2.29a4.12 4.12 0 0 0 .47 1.59c3.36 6.46 5.81 13.29 8.31 20.1a4.17 4.17 0 0 1-.08 3c-1.43 4.06-2.9 8.11-4.06 12.25-2.43 8.67-4.65 17.41-7 26.11-1.07 3.98-2.27 7.94-3.35 11.67zM14.24 6.65c-.54.91-1.09 1.79-1.6 2.69-2.81 4.93-5.49 9.93-8.47 14.75a6.12 6.12 0 0 0-.73 5c.57 2.56 1 5.15 1.52 7.73.86 4.63 1.68 9.27 2.54 13.9.71 3.84 1.48 7.67 2.16 11.51.85 4.79 1.58 9.6 2.46 14.39.44 2.38 1.12 2.93 3.52 3 4.15.1 8.31.1 12.46.15a1.7 1.7 0 0 0 1.81-1.23c.85-2.15 1.94-4.22 2.67-6.41 2.07-6.2 4-12.45 6-18.68.24-.76.47-1.53.7-2.29 2.28-7.73 4.45-15.49 7.42-23a7 7 0 0 0-.08-6c-2.06-4.14-3.88-8.4-5.82-12.6a5 5 0 0 0-1-1.62A3.25 3.25 0 0 0 38.01 7a275.47 275.47 0 0 0-11-.36c-3.51 0-7 0-10.54.06l-2.23-.05zm38.85 20.41c-2.51-.32-3.19-.12-3.93 1.64a135.54 135.54 0 0 0-3.38 8.94c-1.02 3.02-1.69 5.82-2.61 8.71-1.54 4.86-3.11 9.72-4.75 14.55-1.84 5.43-3.79 10.82-5.67 16.23a11.93 11.93 0 0 0-.27 2c2.05-.78 3.72-1.32 5.3-2a2.82 2.82 0 0 0 1.34-1.48c.76-2.18 1.44-4.39 2-6.62 1.72-6.47 3.34-13 5.09-19.42 1.37-5.07 2.83-10.12 4.33-15.16.75-2.45 1.66-4.79 2.55-7.39zM41.67 6.47c.18.49.29.87.45 1.21 2.44 5.35 4.93 10.68 7.32 16.06.67 1.52 1.61 1.17 3 .71-.74-2.34-1.34-4.65-2.21-6.85-1.35-3.4-2.87-6.73-4.34-10.08-1.1-2.43-1.47-2.52-4.22-1.05zM18.06 4.54c1.35.68 2.62.32 3.85.32 4.37 0 8.75.06 13.12 0 1.84 0 3.78.28 5.74-1a5.91 5.91 0 0 0-1.1-.32c-6.113-.193-12.24-.373-18.38-.54a4.19 4.19 0 0 0-3.23 1.54z"/><path d="M15.97 27.57l3.45-.51c1-3.15-.09-6.58.9-10.08l5.19.75v9.17l5.57.67a38.46 38.46 0 0 1-.85 3.92 2.4 2.4 0 0 1-1.21 1.23 6.38 6.38 0 0 1-1.88.3 1.8 1.8 0 0 0-1.77 1.87c-.15 1.74-.45 3.46-.73 5.47a14.23 14.23 0 0 1-2.52 0c-1.54-.24-2-.88-2-2.43v-3.35c0-1.13-.52-1.5-1.62-1.54-2.57-.1-2.6-.19-2.55-2.79.03-.75.02-1.54.02-2.68zm6.42 9.73h.5a10.28 10.28 0 0 0 .39-4.09c-.09-1.23.44-1.76 1.63-1.82a8.19 8.19 0 0 0 2.35-.34 1.62 1.62 0 0 0 .76-1.2c0-.23-.58-.69-1-.77-.61-.13-1.27 0-1.9 0-1.49-.17-1.94-.69-1.89-2.17 0-1.27.16-2.54.2-3.82.04-1.28 0-2.3 0-3.43-1.36-.22-1.53.52-1.52 1.25 0 2.3 0 4.6.22 6.88.08 1-.25 1.52-1.2 1.64a9.07 9.07 0 0 1-1.19-.09c-1.32 0-1.32 0-1.19 1.73.22.06.45.14.68.17 2.58.43 3 .89 3 3.37.03.89.11 1.79.15 2.69h.01z"/></g></g></svg>