<svg width="77" height="63" xmlns="http://www.w3.org/2000/svg"><g fill="none" fill-rule="evenodd"><path fill="#B8E986" d="M11.364 5.878v36.155l.81 11.993 1.394 5.247 5.155 2.372 8.298.651 21.353-.651 8.15-2.372 3.756-3.125 1.389-4.5 1.172-8.415-1.172-12.32V5.878l-1.39-2.31-3.755-1.16-7.282-.912H26.103l-5.899.911-4.992 1.162z"/><path fill="#FFF" d="M18.895 31.064l-1.48 5.595 1.48 3.76 4.287 2.899h5.13l3.375-2.898 1.563-5.096-.863-4.26-2.99-2.925-4.065-1.335h-3.284zM40.97 30.55l-1.481 5.83 1.48 3.918 4.288 3.02h5.13l3.375-3.02 1.562-5.31-.863-4.438-2.99-3.048-4.065-1.391h-3.283z"/><path fill="#9013FE" d="M11.1 5.84v10.32l4.172-4.243 1.949-2.34L19.814 11l5.161 4.428 5.128-5.08 1.807-1.47 7.977 7.282 5.253-5.811 9.312 7.378 6.539-5.81V6.569l-1.129-3.332-2.985-.94-12.595-.743-14.18-.896-5.127.896-6.818 1.683z"/><g fill="#000" fill-rule="nonzero"><path d="M67.375 44.586h-3.9c-.23 2.16-.4 4.21-.67 6.25a19 19 0 0 1-.73 3.75 9.5 9.5 0 0 1-4 5.17c-3.62 2.29-7.61 2.75-11.7 2.93-2.79.12-5.59.05-8.39.09-5.19.08-10.38.34-15.56.21a19.94 19.94 0 0 1-6.48-1.49 6.87 6.87 0 0 1-4.63-5.65c-.45-3.48-.79-7-1.07-10.48-.16-2-.43-2.34-2.41-2.29a1.72 1.72 0 0 0-1.81 1.22 7.66 7.66 0 0 1-1 1.89c-1.05 1.41-2.26 1.43-3.27 0a7.7 7.7 0 0 1-1.12-2.6 15 15 0 0 1 .56-8.71c.86-2.3 3.26-2.53 4.77-.53a25.4 25.4 0 0 1 1.43 2.43l2.61-.56v-8.2c0-5.59.1-11.19.14-16.78v-6.54a45.24 45.24 0 0 1 5.27-2.28 54.65 54.65 0 0 1 18.45-2.25c7.42.34 14.84.65 22.26 1 4 .19 5.94 2.4 6 6.45.12 6 .4 12 .66 18 .14 3.1.38 6.2.59 9.3.05.78.15 1.55.24 2.43 2.29.33 4.21.68 6.07-1.19 1.86-1.87 5.38-.42 6 2.27a9.72 9.72 0 0 1-.75 7.44c-1.47 2.55-4.44 2.93-6.35.69a19.49 19.49 0 0 1-1.21-1.97zm-50.1-34.17c-1.73 2.48-3.31 4.66-4.78 6.92a3.69 3.69 0 0 0-.24 1.86c0 6.22-.08 12.45 0 18.67.07 5.5-.08 11 .8 16.47.5 3.07 2 5.48 5.23 6.09a42.63 42.63 0 0 0 7.82.85c6.07 0 12.13-.24 18.2-.44a42.52 42.52 0 0 0 6.44-.56 30.22 30.22 0 0 0 5.66-1.79 6.09 6.09 0 0 0 3.3-3.59 25 25 0 0 0 1.44-8.94c.15-4.54 0-9.09-.21-13.63-.22-5.34-.59-10.68-.93-16a10.2 10.2 0 0 0-.5-1.74c-1.1 1-2 1.84-2.81 2.67-2 2.05-2.52 2.06-4.68 0-.82-.76-1.66-1.5-2.49-2.24l-4.33-3.76-5.31 6.15-8.19-7.29c-1.85 1.94-3.5 3.66-5.13 5.39-1.17 1.24-1.7 1.37-3 .31-1.61-1.3-3.11-2.73-4.67-4.09-.39-.36-.83-.68-1.62-1.31zm7.41 3.82c1.59-1.53 3-2.84 4.34-4.17.262-.297.5-.615.71-.95 1.06-1.45 1.72-1.59 3.09-.44 1.77 1.49 3.49 3 5.21 4.59 1.39 1.24 1.68 1.23 2.9-.12.967-1.04 1.954-2.08 2.96-3.12a1.72 1.72 0 0 1 2.57-.11c1.18.953 2.35 1.92 3.51 2.9 1.38 1.17 2.75 2.37 4.23 3.65a31 31 0 0 1 3.08-2.88c2.25-1.6 2.82-3.73 2.68-6.35-.16-3-.51-3.65-3.54-4-2.14-.24-4.31-.21-6.46-.36-8.37-.58-16.73-1.24-25.12-.21a42.64 42.64 0 0 0-10.38 2.7c-.73.29-1.73 1-1.81 1.66a54.7 54.7 0 0 0-.09 6.38c1-1.45 1.63-2.43 2.33-3.37 1-1.39 1.67-1.61 3.29-1a7.31 7.31 0 0 1 2.01 1.29c1.47 1.26 2.94 2.58 4.49 3.91z"/><path d="M25.915 44.266c-3.55.22-6.06-1.43-8.1-3.77a6.34 6.34 0 0 1-1.47-6.63c.71-2 1-4.17 2.68-5.76 2.11-2 6.82-2.84 9.41-1.61.22.1.41.24.62.36 4.64 2.64 6.41 5.33 4.53 11.28a9.28 9.28 0 0 1-2.23 4.12 6.48 6.48 0 0 1-5.44 2.01zm-.28-1.87a4.84 4.84 0 0 0 4.19-1.89c1.42-1.59 1.73-3.56 2.06-5.5.56-3.31-1.06-5.74-4.61-7.12-2-.78-6.43.56-7.39 2.6a19.23 19.23 0 0 0-1.56 5.92 4.76 4.76 0 0 0 2.06 4.12 7.34 7.34 0 0 0 5.25 1.88v-.01zM47.505 44.136c-5.1 0-8.51-3.28-8.7-8.16-.17-4.42 1.32-8 5.39-10.12a4.29 4.29 0 0 1 3.67-.43 16.4 16.4 0 0 0 2.09.49 7.62 7.62 0 0 1 6 8.89c-.38 2.77-1.06 5.25-3.26 7.19a8.36 8.36 0 0 1-5.19 2.14zm-.61-2a5.73 5.73 0 0 0 3.72-1.43c2.85-2.03 3.14-5.12 3.23-8.12a4.92 4.92 0 0 0-2-4.17c-2.17-1.55-6.6-1.24-8.35.75a9.37 9.37 0 0 0-2.43 8.42c.61 2.95 2.63 4.54 5.83 4.57v-.02zM27.195 51.996a4.72 4.72 0 0 1 1.35-.19 40.51 40.51 0 0 0 13.01-.22 15.05 15.05 0 0 1 2.6-.28c.36 0 .71.46 1.07.72-.31.38-.57 1-.94 1.11a31.92 31.92 0 0 1-5.67.83c-3.17 0-6.35-.16-9.53-.32a1.83 1.83 0 0 1-1.89-1.65zM36.195 47.106c.2-.55.34-.9.44-1.26.1-.36.13-.71.29-1.57a11.37 11.37 0 0 1-2.17.88 4.06 4.06 0 0 1-1.46-.33c.22-.44.32-1.09.67-1.27a3.82 3.82 0 0 1 4.07-.17 2 2 0 0 1 .89 2.66c-.45 1.13-.73 1.27-2.73 1.06z"/><path d="M25.065 30.946c2.71 0 5 1.69 4.76 3.6-.3 2.49-2.26 5-5 4.91-2.16-.07-3.63-1.81-3.63-4.43 0-2.62 1.41-4.11 3.87-4.08zM43.265 35.066a4.33 4.33 0 0 1 4.11-4.33c2.31 0 4.69 1.79 4.74 3.55a5.22 5.22 0 0 1-4.92 4.92 4 4 0 0 1-3.93-4.14z"/></g></g></svg>