<svg width="73" height="78" xmlns="http://www.w3.org/2000/svg"><g fill="none"><path d="M61.55 46c-1.44 2.45-1.08 5-1 7.41a43.85 43.85 0 0 0 3 15.43c1 2.45.94 5-1.21 7.1-2.34 2.26-5.12 2.44-8 1.55A15.17 15.17 0 0 1 47 72.77c-.62-.73-1.3-1.41-2-2.09-1.32-1.33-2.14-1.39-3.35 0-1 1.15-1.71 2.5-2.6 3.73a9.42 9.42 0 0 1-1.66 2 6 6 0 0 1-8.4-.57 80.93 80.93 0 0 1-5.14-6.29c-1.67-2.18-2.5-2.35-4.68-.66a14.86 14.86 0 0 0-2 1.73 6.39 6.39 0 0 1-4.23 2c-4.09.5-6.6-2.39-5.83-6.08a47.29 47.29 0 0 1 2.59-7.69c.85-2.14 2-4.16 2.94-6.27a8.78 8.78 0 0 0 .6-2.55 2.58 2.58 0 0 0-1.53-2.94c-.94-.43-1.75-1.18-2.71-1.5a10.4 10.4 0 0 1-5.69-4.88 17.71 17.71 0 0 1-2.54-7.9 3.06 3.06 0 0 1 4-3.43 29.68 29.68 0 0 1 4.45 1.68c.59.24 1.09.69 1.68.91a2.69 2.69 0 0 0 3.76-1.38 10.3 10.3 0 0 0 1-2.17c1.17-3.9 2.41-7.74 4.74-11.18 1.78-2.64 3-5.68 5-8.15 4.51-5.66 10.21-9.47 17.83-9 5.59.34 9.5 3.49 12 8.37 3 5.91 3.73 12.32 3.71 18.85 0 1.68 0 3.36.11 5 .11 1.64 1 2.23 2.6 2a6.1 6.1 0 0 0 3.78-1.84 9.54 9.54 0 0 1 2.62-2 3 3 0 0 1 4.44 2.12 9.33 9.33 0 0 1-.65 6.08c-2.03 4.45-5.51 6.74-10.29 7.33z" fill="#FFF"/><path d="M61.55 46c-1.44 2.45-1.08 5-1 7.41a43.85 43.85 0 0 0 3 15.43c1 2.45.94 5-1.21 7.1-2.34 2.26-5.12 2.44-8 1.55A15.17 15.17 0 0 1 47 72.77c-.62-.73-1.3-1.41-2-2.09-1.32-1.33-2.14-1.39-3.35 0-1 1.15-1.71 2.5-2.6 3.73a9.42 9.42 0 0 1-1.66 2 6 6 0 0 1-8.4-.57 80.93 80.93 0 0 1-5.14-6.29c-1.67-2.18-2.5-2.35-4.68-.66a14.86 14.86 0 0 0-2 1.73 6.39 6.39 0 0 1-4.23 2c-4.09.5-6.6-2.39-5.83-6.08a47.29 47.29 0 0 1 2.59-7.69c.85-2.14 2-4.16 2.94-6.27a8.78 8.78 0 0 0 .6-2.55 2.58 2.58 0 0 0-1.53-2.94c-.94-.43-1.75-1.18-2.71-1.5a10.4 10.4 0 0 1-5.69-4.88 17.71 17.71 0 0 1-2.54-7.9 3.06 3.06 0 0 1 4-3.43 29.68 29.68 0 0 1 4.45 1.68c.59.24 1.09.69 1.68.91a2.69 2.69 0 0 0 3.76-1.38 10.3 10.3 0 0 0 1-2.17c1.17-3.9 2.41-7.74 4.74-11.18 1.78-2.64 3-5.68 5-8.15 4.51-5.66 10.21-9.47 17.83-9 5.59.34 9.5 3.49 12 8.37 3 5.91 3.73 12.32 3.71 18.85 0 1.68 0 3.36.11 5 .11 1.64 1 2.23 2.6 2a6.1 6.1 0 0 0 3.78-1.84 9.54 9.54 0 0 1 2.62-2 3 3 0 0 1 4.44 2.12 9.33 9.33 0 0 1-.65 6.08c-2.03 4.45-5.51 6.74-10.29 7.33zm-5-19.67h.13c-.13-2.31-.15-4.64-.44-6.94a25.41 25.41 0 0 0-1.3-5.57c-.94-2.52-1.8-5.2-3.36-7.33C48.3 2 42.71.67 37.36 2.63A22.64 22.64 0 0 0 26.48 11c-.83 1.17-1.64 2.36-2.37 3.59-3 5.09-6.12 10.13-6.83 16.2a3.39 3.39 0 0 1-2.1 2.7c-2.29 1.16-4.32.49-6.38-.58a17.37 17.37 0 0 0-3.48-1.54c-1.72-.45-2.82.44-2.5 2.12.92 4.85 2.46 9.34 7.92 11 .53.16 1 .53 1.5.74a4.53 4.53 0 0 1 3 5.13A19.67 19.67 0 0 1 13.9 55c-1.4 3.47-3 6.87-4.38 10.35a6.8 6.8 0 0 0-.27 3.05c.16 1.66.85 2.17 2.48 2.37a5.14 5.14 0 0 0 4.11-1.57c.66-.58 1.28-1.2 2-1.76a5 5 0 0 1 7.84 1.08 57.32 57.32 0 0 0 5.05 6.36 3.36 3.36 0 0 0 5.07.14 29.29 29.29 0 0 0 2.67-3.35 24.09 24.09 0 0 1 2.08-2.59c1.92-1.84 3.75-1.83 5.67 0 .92.88 1.7 1.9 2.56 2.85 2.34 2.57 5.06 4.4 8.72 4.32a4.46 4.46 0 0 0 4.5-5.36 10.13 10.13 0 0 0-.54-2.08 43.65 43.65 0 0 1-2.94-13.75A31.07 31.07 0 0 1 59 46c.3-1.21.93-2.07 2.26-2.09 2.48 0 4.31-1.22 6.1-2.85a8 8 0 0 0 3-6.47c0-.82-.14-2-.66-2.36-1-.7-1.66.48-2.38 1-.38.29-.67.74-1.08.94a19.18 19.18 0 0 1-4.56 1.93c-3.21.57-5-1.06-5.17-4.33-.04-1.77.02-3.63.02-5.47l.02.03z" fill="#000"/><path d="M42.46 36.81c-.43 1.61-.88 3.21-1.28 4.82-.76 3-4.11 3.82-6.29 3.67-3.68-.25-6.12-4.3-5-8 .12-.38.35-.73.44-1.11 1-4.16 4.29-5 7.47-4.95 2.56 0 3.63.9 4.18 3.38.121.708.205 1.423.25 2.14l.23.05zm.36-16.87c.55-2.29 1-4.55 1.66-6.74.47-1.59 1.68-1.8 2.84-.61a4 4 0 0 1 .82 1.41 14 14 0 0 1-.33 10.88c-.28.62-1.17 1.47-1.63 1.39A3.17 3.17 0 0 1 44 24.81a30.93 30.93 0 0 1-1.18-4.87zm-6.94-6.29a13.26 13.26 0 0 1-3.1 7.91 6.77 6.77 0 0 1-.81.87c-1.06.89-2.35 1.16-3 .54a2.57 2.57 0 0 1-.74-3c1.12-3.12 1.76-6.45 4.19-9 .54-.56.89-1.5 1.87-1.07a2.35 2.35 0 0 1 1.59 2.1c.01.44 0 .84 0 1.65z" fill="#000"/></g></svg>