<svg width="54" height="56" xmlns="http://www.w3.org/2000/svg"><g fill="none" fill-rule="evenodd"><path fill="#D8D8D8" d="M1.904 26.178l1.167 9.774 3.624 18.66h12.323l17.088-3.982 1.422 1.514 4.493-.738 1.265-22.146V19.215l-7.18-2.556-1.07-5.129-1.91-5.59-4.32-3.522-5.335-.651-4.453.651-6.327 2.387-3.294 3.56-1.335 5.362v10.908z"/><g fill="#000" fill-rule="nonzero"><path d="M46.4 50.35c0 1.84-.12 1.94-1.67 2.13-1.55.19-3.28.5-4.92.8a4.5 4.5 0 0 1-3.43-.28 5.4 5.4 0 0 0-3.24-.2c-4.26.66-8.5 1.43-12.75 2.18a6.48 6.48 0 0 1-1.4.3c-1.16-.07-2.63.2-3.09-1.22a5.37 5.37 0 0 1 .17-2.81c.15-.59.72-1.07 1.43-2 .26 1.09.4 1.57.48 2.07.08.5.13 1.08.22 1.88 4.81-.72 9.56-1 14-2.7.36-1.42-.43-2.94.49-4.18 1.47.09 1.21 1.39 1.69 2.09a3.65 3.65 0 0 0 2.37-3.53c.14-3 .47-6.05.72-9.08.3-3.58.63-7.15.89-10.73.09-1.17 0-2.36 0-3.85h-2.71c-1.59.11-3.18.36-4.77.41-1.59.05-1.93-.48-1.76-2A28.32 28.32 0 0 0 27.07 6a4.4 4.4 0 0 0-4-3c-6-.19-14.41 3.41-14.29 12.19 0 2.86.35 5.73.63 8.59.19 2 .11 1.94-1.94 1.91a24.25 24.25 0 0 0-4.62.84 16.73 16.73 0 0 0 0 2.7c1.09 6.21 2.24 12.41 3.36 18.61.2 1.1.45 2.2.56 3.3a5 5 0 0 1-.27 1.42c-1.24 0-1.34-.78-1.47-1.46-1.44-7.51-3.34-14.95-4-22.6-.09-1-.24-2-.38-3.2l6.37-1.51c-.13-2.31-.24-4.53-.38-6.74C6.19 10 8.91 5.42 15.36 2.65c2.85-1.23 5.74-2.39 9-2.28A11.39 11.39 0 0 1 31.5 3.2c3.17 2.66 4.65 6.21 5.31 10.17.46 2.75.45 2.75 3.09 3.3.7.15 1.42.25 2.11.46 1.9.56 2.59 1.54 2.47 3.5-.2 3.19-.47 6.38-.64 9.57-.12 2.15-.13 4.32-.16 6.47-.03 2.15 0 4.48 0 6.71 0 2.23-.33 4.41-.53 6.87l3.29.14-.04-.04zM28.33 3.46a35 35 0 0 1 3.38 14.09c2.62-1 2.89-1.46 2.85-3.66A13.11 13.11 0 0 0 32.26 7c-.95-1.49-2.06-3-3.93-3.54zm10.35 47.75c2.18-.34 2.41-.87 1.5-3.24-1.88.63-1.92.7-1.5 3.24zM42.19 20c-1.66 1.11-1.85 2.28-1 4.8 1.7-1.31 1.06-2.95 1-4.8zm-2.44 21.54c2-1.13 2-1.15 1.41-2.93-.95.76-2.1 1.39-1.41 2.93zM38.5 19c-2-1.31-3-1.17-4 .41l4-.41zm1.74 13.34c1.62-.71 1.62-.71 1.16-2.42-.96.57-1.56 1.22-1.15 2.44l-.01-.02zm1 11.35c-.86.32-1.85.21-1.68 1.41a.66.66 0 0 0 .5.39c.97.03 1.36-.49 1.14-1.78l.04-.02zm-1.3-6.9c1.32-.26 1.84-.83 1.51-2.19-.95.54-1.76.83-1.55 2.21l.04-.02z"/><path d="M20.15 21.58l.46 6.49c-1.62.51-2.25.2-2.37-1.35-.12-1.55 0-2.85 0-4.23-1.29-.7-3.2.77-3.83-1.66l3.45-1-.5-8.64c1.3-.36 1.88-.09 2 1 .11 1.51.22 3 .4 4.53.1.86.35 1.7.5 2.38 1.54 1.12 4.13-.86 5 2.21l-5.11.27zM10.62 48.5v5.38a1.34 1.34 0 0 1-1.51 1.45c-2.32 0-4.63.15-6.95.22a1.64 1.64 0 0 1-.93-.1 4.63 4.63 0 0 1-.78-1c.3-.2.6-.54.92-.56 1.65-.12 3.32-.16 5-.24 1.68-.08 1.84-.29 2.14-2 .14-.78.15-1.59.24-2.38.06-1.05.75-.98 1.87-.77zm1.65.59c1.81 1.17 2.1 2.87 1.28 5.69-1.13 0-2-.19-1.8-1.67.17-1.24.32-2.47.52-4.02zm34.14 1.31c.47-1.22.9-2.46 1.43-3.65a10.11 10.11 0 0 1 1.35-1.67c.8 2.55-.37 4.26-.65 6.54l-2.14-1.26a.29.29 0 0 0 .01.04zm5.91 2.14c-1.22.2-1.87 0-1.95-.92-.12-1.38 1.22-3 2.86-3.58.66 1.74-1.16 2.86-.91 4.5z"/></g></g></svg>