<svg width="65" height="57" xmlns="http://www.w3.org/2000/svg"><g fill="none" fill-rule="evenodd"><path fill="#FFF" d="M16.157 49.02l2.917-10.376h17.44l12.697 1.618 2.42 6.49-2.42 2.269z"/><path d="M17 41.612c1.64-7.18 5-13.78 8.4-20.27a24.7 24.7 0 0 1 11.93-11.3 45.11 45.11 0 0 0 6-3.34 36.21 36.21 0 0 1 13.12-5c1.82-.35 3.66-.6 5.5-.86.76-.11 1.51-.07 1.87.91-.54 1.68-2 2.76-3.12 4-1 1.09-2.13 2.08-3.17 3.13a20.21 20.21 0 0 0-4.41 7.67 92.48 92.48 0 0 0-3 11.49 34.15 34.15 0 0 0-.85 8.47c0 1.12 0 2.27 1.13 2.84l-.31 2c1.43.09 2.71.2 4 .25 2.61.037 5.2.485 7.67 1.33 3.13 1.14 4.2 4 1.6 6.45a9.38 9.38 0 0 1-2.57 1.78 54.75 54.75 0 0 1-11.21 3.91c-1.69.32-3.38.7-5.09.86-3.64.35-7.3.5-10.93.86-4.9.48-9.79 0-14.69-.07h-6.7a19.48 19.48 0 0 1-9.44-2.44C.27 52.832 0 50.922 2 48.832a15.3 15.3 0 0 1 5.74-3.67c1.91-.73 3.78-1.57 5.68-2.33 1.07-.39 2.18-.74 3.58-1.22zm1.35 2.54c-.51 1 0 1.21.57 1.38 1.06.34 2.12.69 3.2.94 2.65.61 5.3 1.51 8 1.66 4.333.182 8.672.135 13-.14a11.29 11.29 0 0 0 5.52-1.35 10.88 10.88 0 0 0-.69-5.14c-2.92.23-5.74.54-8.58.65-2.84.11-5.84.14-8.74 0-2.9-.14-5.52-.66-8.27-1l-.1.42 3.74 1.51-.06.47a3.35 3.35 0 0 1-1.29.2c-1.42-.39-2.81-.9-4.21-1.36-.52-.17-1-.74-1.77-.17 2.31 2.16 5.48 2.13 8.21 3.53-.43.33-.67.67-.89.66-2.75-.09-5.19-1.16-7.68-2.25l.04-.01z" fill="#000" fill-rule="nonzero"/></g></svg>