<svg width="65" height="65" xmlns="http://www.w3.org/2000/svg"><g fill="none" fill-rule="evenodd"><path fill="#F8E71C" d="M54.727 4.237l.673 2.319v2.528l-.985 2.125-1.234 1.019h-1.31l1.062 1.44 1.482 1.052 2.303.346 1.906-.695 2.018-1.713.575-2.244v-2.54l-.575-1.81-1.105-1.246-1.617-.58h-1.202zM7.3 15.697L4.456 21.32l1.422 5.091 7.836 5.96v5.1l5.817 18.733 27.337 2.865 2.063-16.342V33.88l-5.47-12.56-5.556-3.036H31.85l-2.973-7.098-2.183 4.511-1.595 5.622v11.05l-7.196-3.806-5.862-2.153-2.43-3.232v-4.894z"/><path d="M31.946 11.88v1.61c.933.239 1.9.32 2.86.24 3.38-.08 6.76-.21 10.15-.3.536.02 1.07.073 1.6.16-.29 2.08 1 3.4 2 4.83a5.36 5.36 0 0 0 4.45 2.3 2.5 2.5 0 0 1-2.14 2.41c-.42 0-.84.11-1.31.18 0 2-.1 3.85-.13 5.71-.073.487.15.971.57 1.23.228.15.4.372.49.63a7.7 7.7 0 0 0 2 3.21c1.29 1.24 2.6 2.45 4 3.59a8.12 8.12 0 0 0 3.5 1.45c.237.012.47.063.69.15.31.2.73.45.8.76.13.53-.44.6-.8.68-.92.2-1.86.35-2.8.51-.27 0-.54.06-.88.1.06 1.8.1 3.54.19 5.28.09 1.74.23 3.48.34 5.08a18.6 18.6 0 0 1 2.56 1.81 18.33 18.33 0 0 1 3 3.54 13.45 13.45 0 0 1 1.16 3.74 1 1 0 0 1-1 1.22c-5.27.45-10.54 1-15.82 1.3-3.65.21-7.32.07-11 .1-.88 0-1.75.08-2.62.12l-16.47.75c-1 0-2.07.05-3.1 0a61.74 61.74 0 0 1-7.99-.27l-.47-.06a2.24 2.24 0 0 1-1.72-3.4c.36-.79.62-1.63 1-2.39.34-.585.74-1.135 1.19-1.64.9-1.11 1.77-2.26 2.77-3.27a12.76 12.76 0 0 1 2.45-1.87 1.88 1.88 0 0 0 1.06-1.84c-.07-1.39-.14-2.77-.18-4.16-.08-2.87-.13-5.73-.2-8.6a14.76 14.76 0 0 0-.15-1.77c-.11-.71-.42-.87-1.08-.61-.18.07-.36.17-.54.26-1.35.61-1.87.45-2.83-1l2.5-1.09c-.41-.6-1-.6-1.4-.78-.73-.29-1.48-.57-2.21-.87a4.83 4.83 0 0 1-2.43-2.8 9.87 9.87 0 0 1-.86-4.11c0-1.91-.2-3.81-.3-5.58L.676 17.1c.18-.23.3-.52.44-.53A2.83 2.83 0 0 0 3.246 15a21.22 21.22 0 0 0 3.32-6.42c.14-.403.31-.794.51-1.17 1.23.25 1.44 1.11 1.61 2 .17.89.39 1.77.62 2.64a4.94 4.94 0 0 0 3.26 3.39 2.73 2.73 0 0 1 1.39 1.38c.39.68.13 1.15-.65 1.24h-.6c-1.39.06-1.43.09-1.46 1.53a14.22 14.22 0 0 0 .51 4.47 3.79 3.79 0 0 0 3 2.33l1-1.92c1.71 1.25 3.54.56 5.28.58a23 23 0 0 0 3-.36 11.85 11.85 0 0 0 0-1.52 45.69 45.69 0 0 1 0-8.82c0-.2.05-.4.06-.59.06-2.17.18-2-1.71-2.42a3.77 3.77 0 0 1-.83-.53 8 8 0 0 0 3-2.66 10.65 10.65 0 0 0 2.87-6.52c.05-.95.2-1.06 1.09-.87a1.6 1.6 0 0 1 1.49 1.71 17.3 17.3 0 0 0 2 6.69c.22.38.505.717.84 1 .25.188.484.395.7.62a.62.62 0 0 1-.46 1 8.07 8.07 0 0 1-1.14.1zm23.18 29.77h-5.31l.43 8.67c.91.13 1.77.29 2.63.36.86.07 1.66.76 2.71.52l-.46-9.55zm-31.07.35v2.18h1.44c.9-.06 1.12-.41 1-1.58 0-.7-.18-.78-1.15-.72-.34.01-.72.06-1.29.12zM8.246 23.54a9.91 9.91 0 0 0-.38-3.79 4.81 4.81 0 0 0-1.33 2.58c-.26 1 0 1.36 1.14 1.32a4.36 4.36 0 0 0 .57-.11zm21.24 24.58c-2.09.34-2.35.62-2.1 2.18 1.43.17 1.68.13 2.46-.42-.06-.45-.11-.91-.18-1.38a1.78 1.78 0 0 0-.18-.38zm11-6.95c1.93.21 2.22 0 2.13-1.75a5.35 5.35 0 0 0-.1-.56l-1.93.31-.1 2zm-16.53 4.55l.12 1.85 2.2-.27-.1-1.87-2.22.29zm-5-8.94V35h-1.99v2l1.99-.22zm18-5.53l-.13-1.82h-1.96v1.82h2.09zm1.59 0c.59 0 1.27.24 1.65-.32a1.69 1.69 0 0 0-.07-1.84l-1.57.11-.01 2.05zm4.07 4.38c-2 0-2.47.42-2 1.89a3.48 3.48 0 0 0 2-.26v-1.63zm1.82 3.09v2l1.64-.18v-2l-1.64.18zm-10-13.47l2-.12v-1.7l-2.19.22.19 1.6zm-4.89 19.39c-1.62.38-1.75.59-1.43 2.34l1.43-.16v-2.18zM18.876 41c-1.86.13-2 .35-1.53 1.88h1.53V41zm7.37 9.4l-.11-1.73-2 .21v1.52h2.11zm-5.56-7.46h1.3a4.71 4.71 0 0 0 0-2.48l-1.28.3-.02 2.18zm16-16.31h-2.18l.07 1.44 2.27-.2-.16-1.24zM18.906 39.5v-1.65l-1.93.15.18 1.75 1.75-.25zm27.13-2.5v-1.61h-1.57v1.85l1.57-.24zm-6.16-12.59l.17-1.22h-2.24l.44 1.62 1.63-.4zm-11.87-9.35a4.56 4.56 0 0 0-1.06 2.26c-.09.4.2.69.63.67a3.82 3.82 0 0 0 .83-.24c-.06-.71-.12-1.38-.19-2a4.4 4.4 0 0 0-.21-.69zm15.92 28.37a9.37 9.37 0 0 0 1.16 0c1.06-.13 1.16-.32.89-1.49-1.4.06-1.9.06-2.05 1.49zM39.936 26c-1.62 0-1.85.31-1.36 1.76l1.67-.15-.31-1.61zm2.77 16.42c-.69.1-1.25.15-1.78.28a.74.74 0 0 0-.38.51.66.66 0 0 0 .21.51 2.68 2.68 0 0 0 2.11-.29l-.16-1.01zm-20.46-3.07l-.09-1.82-1.38.47v1.39l1.47-.04zm6 4.52h1.25V42l-1.25.09v1.78zm-6.22-7.28v-1.87l-1.25.12v1.68l1.25.07zm31.35-32.78a7.47 7.47 0 0 1 4.25-.09 9.37 9.37 0 0 1 2.62 1.13 4.17 4.17 0 0 1 2 3.37c.07.83.09 1.67.11 2.51a2.64 2.64 0 0 1-.73 2.08 16.17 16.17 0 0 1-2.23 2.19 4.91 4.91 0 0 1-3.55.7 11.39 11.39 0 0 1-3.85-1.55 4.24 4.24 0 0 1-1.35-1.76c-.24-.39-.05-.71.39-.8.268-.05.542-.05.81 0 1 .19 1.23.11 1.72-.79a10.07 10.07 0 0 0 .77-1.61 4.87 4.87 0 0 0-.34-4.19c-.2-.31-.36-.67-.62-1.19zm2.39 1c.28.56.504 1.146.67 1.75a6.43 6.43 0 0 1-.56 3.71c-.83 1.84-.94 1.9-2.58 2.71.06.1.08.25.17.3 2.71 1.85 4.69 1.15 6.43-1.37.77-1.12.51-2.46.39-3.71a4 4 0 0 0-4.52-3.38v-.01z" fill="#000" fill-rule="nonzero"/></g></svg>