<svg width="59" height="73" xmlns="http://www.w3.org/2000/svg"><g fill="none" fill-rule="evenodd"><path fill="#B8E986" d="M2.638 36.316l17.977 3.961 17.825.651 17.99-5.605-2.595-2.464-4.422-2.083-3.322-1.379-2.942-.912-2.333-1.595H37.2l-3.37 2.507-2.638-2.507-4.17-.646-3.765 1.335-1.39 1.818-4.541.733h-2.638l-3.094 1.634-4.869 1.095-4.088.727z"/><path d="M41.014 68.058c-8.21 1.86-16.42 2.58-24.8.83-.26.54-.5 1.07-.77 1.58-1.11 2.15-2.69 2.26-4 .19a5.37 5.37 0 0 1-.79-2.47 2.55 2.55 0 0 0-1.26-2.43c-3.14-1.5-4.8-4.19-6.36-7.12a22.69 22.69 0 0 1-2.9-9.25 23.63 23.63 0 0 1 1-7.89 2.86 2.86 0 0 0-.2-2.71 3.89 3.89 0 0 1-.48-1.88c-.08-1.1 0-2.21 0-3.51a7.69 7.69 0 0 1 4.69-1.8 42.28 42.28 0 0 0 5.48-.8 2.94 2.94 0 0 0 1.31-.77 5 5 0 0 1 4.35-1.15c.583.092 1.17.152 1.76.18a4.34 4.34 0 0 0 4.06-1.66c1.95-2.58 7.72-2.48 9.86-.75 1.67 1.34 1.76 1.26 3.43-.25 1.37-1.24 5.17-1.16 6.64.29a4.63 4.63 0 0 0 2 1c2.55.84 5 2.05 7.52 2.9 1 .34 2 1.11 3.15 1.4a4.08 4.08 0 0 1 3.24 3.56c.22 1.46.34 2.95.48 4.42 0 .21 0 .53-.1.64-2 1.71-.9 3.87-.78 5.81.28 4.37-.15 8.59-2.55 12.34a16.85 16.85 0 0 1-6.05 5.13c-.316.2-.65.368-1 .5a2.2 2.2 0 0 0-1.69 2.5 6 6 0 0 1-.43 2.6c-.78 1.82-2.13 2-3.44.54-.39-.55-.79-1.18-1.37-1.97zm-19-36.91c-2.34-.08-4.33-.24-6.32-.18a4.17 4.17 0 0 0-2.44.81 5.43 5.43 0 0 1-3.23 1.28 6.11 6.11 0 0 0-4.27 1.85 96.83 96.83 0 0 0 48.27-.27 10.65 10.65 0 0 1-1.6-1.27 4.33 4.33 0 0 0-4.3-1.73 1.36 1.36 0 0 1-1.12-.48c-1.14-1.83-2.63-1.89-4.38-.89a5 5 0 0 1-.87-1.09c-.44-1.12-1-2-2.38-2a3.48 3.48 0 0 0-2.95 1.3c-.66.92-2 1.38-2 2.77 0 .16-.46.3-.93.57-1.13-2.41-2.22-5-5.42-4.75-2.77.24-5.05 1.31-6.02 4.08h-.04zm6.85-14.99a6.85 6.85 0 0 1 1.94-4.34c2.33-2.53 2.23-5.15.69-8a5.66 5.66 0 0 1-.9-1.73c0-.45.46-.94.7-1.45.36.31.88.55 1.06.94.6 1.34 1.07 2.73 1.62 4.09a5.91 5.91 0 0 1-.77 6.26c-.36.47-.7 1-1.08 1.41a4.12 4.12 0 0 0-.71 4.74c.16.25.256.535.28.83 0 .32-.19.77-.43.87a1 1 0 0 1-.92-.25c-.55-1.08-.99-2.23-1.48-3.37zm-9.45-7.57c.55 0 1-.09 1.18.08.55.58 1.29 1.2 1.42 1.91.51 2.62.44 5.18-1.84 7.12l-.84.72c-2.26 1.93-2.3 2.06-1.37 4.9a1.84 1.84 0 0 1 0 .63c-1.39.21-2.09-.19-2.33-1.47a5 5 0 0 1 1.45-4.84c.6-.55 1.24-1.06 1.81-1.63a4.72 4.72 0 0 0 1.11-6c-.17-.44-.33-.82-.59-1.42zm21.82-3.08a4.44 4.44 0 0 1 2.13 5.76 20.21 20.21 0 0 1-2.63 4.31c-1 1.28-2 2.41-1.14 4.16.13.27 0 .69 0 1.06a3 3 0 0 1-2.14-3.68 4.84 4.84 0 0 1 1.13-2.13c2.56-2.54 4.01-5.4 2.65-9.48z" fill="#000" fill-rule="nonzero"/></g></svg>