<svg width="79" height="79" xmlns="http://www.w3.org/2000/svg"><g fill="none" fill-rule="evenodd"><ellipse fill="#FFF" cx="40.24" cy="51.179" rx="31.24" ry="24.821"/><path d="M54.378 12.75a36.9 36.9 0 0 1-2.47-3c-1-1.43-1.87-2.92-3.92-2.43-1.49.36-2.7 3-2.3 5.09.31 1.63.83 3.21 1.3 5 1.46.18 2.79.42 4.13.5a23.74 23.74 0 0 1 11.92 3.86c2.51 1.67 4.94 3.48 7.36 5.27a15.52 15.52 0 0 1 5.6 8.41c1.09 3.67 2.26 7.34 2.17 11.22a20.94 20.94 0 0 1-.68 5.42c-1.12 3.79-2 7.66-4.56 10.95a39.35 39.35 0 0 1-8.6 8.21 30.44 30.44 0 0 1-6.18 3.62c-8.37 3.28-17 4.9-26 3.31-5-.87-9.95-1.61-14.64-3.54a49.38 49.38 0 0 1-11.09-6.08 14.41 14.41 0 0 1-6.08-13.3 31 31 0 0 1 6.94-17.5 122.34 122.34 0 0 1 9.26-10.34A25.47 25.47 0 0 1 27.578 21c1.89-.55 1.75-.56 2-2.34 1.41-9.1 7.12-17 17-18.42a14.16 14.16 0 0 1 7.31.89c2.54 1 4.06 3.28 5.3 5.62a2.13 2.13 0 0 1-.36 1.93c-1.29 1.32-2.71 2.49-4.45 4.07zm12.32 39.41c-.84.2-1.21.26-1.56.37-4.31 1.47-8.59 2.95-12.94 4.23-3.36 1-6.8 1.76-10.24 2.42-1.79.35-3.17.95-3.79 2.77-.29.84-.62 1.76-1.77 1.59-1.35-.21-3.11.48-3.86-1.22-.87-2-2.29-2.05-4.13-1.84-3 .34-6 .5-9 .65-1.67.08-3.36 0-5 0a13.05 13.05 0 0 0-1.75.28c1.83 3.47 3.93 6.32 7.29 8a11.72 11.72 0 0 0 3.42 1 1.83 1.83 0 0 0 2.23-1.63c.48-2.07.56-2 2.64-2.17a10.91 10.91 0 0 0 1.91-.18c1.1-.27 1.65.25 2 1.17.35.92.78 1.86 1.18 2.79a31.09 31.09 0 0 0 9.18-1.22c1.74-.56 3.43-1.11 3-3.57 1.13-.3 2.16-.48 3.12-.84 1.76-.66 3.4-.86 4.84 1.19 4.67-4.31 9.57-8.08 13.23-13.79zm-40.92-19.78c-3.56 1.39-10.07 13.3-9.72 17.86 3.76.78 7.52.4 11.58-.24-2.21-5.8-1.81-11.72-1.86-17.62zm30.54 13c-1.73-2.38-3.65-4.64-5.13-7.15a83.44 83.44 0 0 1-3.61-7.8c-2.43 3.46-5.23 14.08-4.54 17.21a27.2 27.2 0 0 0 13.28-2.23v-.03z" fill="#F57C23" fill-rule="nonzero"/></g></svg>