<svg width="75" height="69" xmlns="http://www.w3.org/2000/svg"><g fill="none" fill-rule="evenodd"><path fill="#FFF" d="M35.438 27.073l19.523-1.9 6.772 11.352 4.98 13.415-9.616 10.593L42 64.44H28.923l-15.76-3.906L6.25 51.21V38.74l6.914-9.28z"/><path d="M35.38 68.16a48.41 48.41 0 0 1-11.58-1.08c-2.19-.49-4.41-.79-6.61-1.26a23.76 23.76 0 0 1-13.66-8.38 15.5 15.5 0 0 1-2.69-5.86 16.69 16.69 0 0 1 1.53-12.77 23.2 23.2 0 0 1 3.28-4.5A85.08 85.08 0 0 1 16.37 23.9a41.8 41.8 0 0 1 3.69-2.79 2.85 2.85 0 0 0 1.28-2.65A27.07 27.07 0 0 1 23 10.39a15 15 0 0 1 6.85-7.7A18 18 0 0 1 43 .54a8.64 8.64 0 0 1 6.29 4.94c.85 2 .46 3.33-1.35 4.37a32.67 32.67 0 0 1-4 2c-1.54.63-2.09.34-2.82-1.18A13.61 13.61 0 0 1 40.59 9a2.82 2.82 0 0 0-2.29-2.16 3 3 0 0 0-2.48 2c-.84 2 .31 5.93 2.14 7.1a2.79 2.79 0 0 0 1.28.32 54.5 54.5 0 0 1 20.16 5.55A28.88 28.88 0 0 1 70 30.16c1.77 2.3 3.62 4.44 4.42 7.4a15.31 15.31 0 0 1 .15 7.51 24.92 24.92 0 0 1-9 14.55A34.27 34.27 0 0 1 58.33 64a86.37 86.37 0 0 1-9.13 3 9.11 9.11 0 0 1-2 .31c-3.93.27-7.87.55-11.82.85zm2.24-7.52a26.27 26.27 0 0 0 10.38-2c2.59-1.13 5.26-2.25 7-4.63 2.31-3.11 4.56-6.26 6.82-9.41a5.29 5.29 0 0 0 .37-1.09l-16 7.72A4.34 4.34 0 0 0 46 52c-.3 2.93-.3 2.93-3.14 3.46-2.51.46-2.61.39-3.44-2.17 0-.12-.22-.19-.43-.36a34.71 34.71 0 0 1-5.4.81c-1.83 0-2.82.72-3.21 2.38a1.52 1.52 0 0 1-2 1.31c-.59-.08-1.2 0-1.78-.15a1.62 1.62 0 0 1-1.43-1.46c-.31-1.85-.74-2.24-2.48-1.91-3.72.72-7.26-.05-10.81-1-.66-.18-1.34-.26-2-.39.009.458.212.891.56 1.19a26.12 26.12 0 0 0 7.83 4.2c2.23.8 4.57 1.3 6.86 2 1.35.39 2.68.83 3.55 1.1 1.67-1 2.88-1.81 4.19-2.4 3.32-1.61 3.49-1.46 4.75 2.03zM53.56 29L37.84 40.12a19.51 19.51 0 0 0 2.85 1.77c2.69 1.1 4.12 1.15 6.27-1 2.15-2.15 3.26-4.8 4.73-7.29.83-1.44 1.87-2.88 1.87-4.6zm-39.39 6.9c-.13 3.1-.15 5.61.65 8a3.22 3.22 0 0 0 3.25 2.24c3.23-.58 5.55-2.48 7.54-5.25L14.17 35.9z" fill="#F57C23" fill-rule="nonzero"/></g></svg>