<svg width="63" height="67" xmlns="http://www.w3.org/2000/svg"><g fill="none" fill-rule="evenodd"><path fill="#9783AA" d="M12.87 47.387l-1.037 1.558-.727 1.46 8.298 4.944 7.522 1.741 3.646 2.252 4.2 1.254 4.5 1.9 7.353 3.25 1.427-3.25-.63-1.9-5.266-2.193-5.428-1.836-4.2-1.218-3.832-.973-5.14-1.904-5.498-2.067-2.985-1.46z"/><path fill="#FF6924" d="M22.696 7.889h-8.91l-1.554 4.755 5.232 7.378 5.232-3.646z"/><path d="M47.969 40.937c-.52 1.14.12 1.45.66 1.84 3.46 2.51 7.19 4.16 11.59 3.75.248.01.493.054.73.13a6.34 6.34 0 0 1-4.85 5.38 2.41 2.41 0 0 0-2 1.25 1.79 1.79 0 0 1-1.45.67 7.54 7.54 0 0 1-4.78-1.62c-1.59-1.47-3.17-3-4.66-4.52a2 2 0 0 0-2.22-.74c-1.46.39-3 .53-4.47.78-2.13.36-2.7.81-3 2.93a16.08 16.08 0 0 0 0 3.55c.06.86.78 1.21 1.52 1.31 4.36.63 8.18 2.94 12.39 4 1.44.37 1.78 1.15 1.34 2.56-.35 1.13-.82 2.22-1.24 3.33-.42 1.11-1 1.11-1.9.71-2-.92-3.95-1.82-5.91-2.74-.72-.34-1.4-.74-2.11-1.09a2.72 2.72 0 0 0-3.29.3l-.76-1.7-.37.27a6.11 6.11 0 0 1-.35 1.11 8.3 8.3 0 0 1-.77 1c-.37-.31-.76-.6-1.11-.93a2.76 2.76 0 0 1-.35-.54l-1.39 1.26c-1.68-1.19-.34-3.46-1.87-4.94l-.53 2.62-1.59-.95-1 1.9-1.39-1.51c-.49 0-1.22.21-1.53-.06-.31-.27-.42-1-.53-1.61-.11-.61-.13-1.16-.18-1.69-2.45-1.51-4.78-3-7.15-4.38a23.75 23.75 0 0 0-2.35-1c-.57-.26-1.12-.66-.83-1.36.56-1.31.93-2.76 2.28-3.69 3.28 1.52 6.1 4 9.9 4.6l1.34-6.22c-1.62-1.05-3.22-2.08-4.8-3.12a17.87 17.87 0 0 1-6.56-8.46c-1.76-4.29-2.21-8.79-2.52-13.34 0-.43-.11-.86-.19-1.43a11.94 11.94 0 0 0-4.35 2.86c-1.15 1.02-2.21 2.12-3.35 3.12-.31.27-1 .59-1.16.46a1.93 1.93 0 0 1-.64-1.31c-.18-2.37.67-4.56 1.39-6.74 1.92-5.79 5.28-10.46 10.75-13.41 3.22-1.7 6.54-3.16 10.37-2.55a13.27 13.27 0 0 1 6.55 2.56 21.39 21.39 0 0 1 6 7c.93 1.88 1.92 3.74 2.88 5.61.12.23.19.55.39.68 1.54 1 1.92 2.78 2.61 4.32a14.34 14.34 0 0 0 4.73 5.23 25.87 25.87 0 0 0 16.51 5.54c.84.95.33 1.78-.14 2.56a7.55 7.55 0 0 1-4.3 3c-.58.21-1.18.37-1.76.56l.02.49 1.91.72c.4 1.13-.39 1.41-1.16 1.66a14 14 0 0 1-6.46.43l-2.54-.4zm-13.6 15.78c-.15 2.29.79 3.56 2.74 4.15.493.18.974.39 1.44.63l5 2.26 1.54-3.47c-3.75-1.08-6.94-3.07-10.72-3.57zm-5.28-2.72l2-6.56-2.83-1a1 1 0 0 0-1.42.67 7.74 7.74 0 0 0-.78 4.42c.079.494.335.942.72 1.26.74.46 1.511.864 2.31 1.21zm-6.49-.93c-3-1.49-5.79-2.91-8.61-4.31a2 2 0 0 0-.76-.17 2.79 2.79 0 0 0-.65.13l-.44 1.42 9 5.23 1.46-2.3zm22.22 11.07c.48.7 1.06.66 1.37.2a9.77 9.77 0 0 0 1.1-2.39c.06-.2-.33-.64-.61-.81-.12-.07-.61.21-.73.44-.43.86-.73 1.75-1.13 2.56zm-26-53.89c-1.65 0-2.21.16-3.13 1.13 1.53 1.22 2.72.81 3.11-1.13h.02zm10.58 45.51c-.92-.44-1.51-1.12-2.59-.88a2.31 2.31 0 0 0 1.82 2.29l.77-1.41z" fill="#000" fill-rule="nonzero"/></g></svg>