<svg width="61" height="64" xmlns="http://www.w3.org/2000/svg"><g fill="none" fill-rule="evenodd"><path fill="#9783AA" d="M12.479 15.938l-.782 8.015-.911 10.934 1.693 23.759 1.332.955.911-2.319V21.011l.813-5.073z"/><path fill="#D8D8D8" d="M11.634 21.391l-3.376-1-2.85.69-3.066 2.16-1.248 3.158v2.941l3.261-1.302h2.676l4.603 1.302v-5.372z"/><path fill="#FFF" d="M30.787 12.027L26.68 18.99v7.721l4.108 6.616 6.006 17.348h5.639l-.636-23.964V13.088z"/><g fill="#000" fill-rule="nonzero"><path d="M22.16 46.879a7.24 7.24 0 0 1-6.85-2.85c-.11 2.73-.24 4.86-.26 7 0 2.56 0 5.11.07 7.67 0 .86-.25 1.37-1.14 1.51-1.29.2-2.4-.21-2.65-1a4.83 4.83 0 0 1-.11-1.24c-.23-6.39-.49-12.78-.67-19.17a5.58 5.58 0 0 0-.79-3.16 3.25 3.25 0 0 1-.49-3.17 2.55 2.55 0 0 0-1.53-3.57 5 5 0 0 0-4.81.38c-.78.45-1.62.79-2.53 1.22-1.18-7.33 2.4-10.93 10.75-10.95.09-1 .16-2 .29-3 .17-1.41.49-1.71 1.81-1.59.86.08 1.7.29 2.7.47l-.82 14.85a43.41 43.41 0 0 0 8.1.56c.22-2.06.4-3.95.63-5.83a29.57 29.57 0 0 1 5.84-15 21.87 21.87 0 0 1 7.39-6c4.55-2.34 9.23-4 14.49-3.14 2.88.46 5.1 1.75 6.35 4.46a39.78 39.78 0 0 1 1.74 3.94 7.15 7.15 0 0 1-1.24 6.78c-1.26 1.7-2.82 1.76-4.24.24a8.09 8.09 0 0 1-1.44-2.17 8.23 8.23 0 0 0-3.19-3.49c-2-1.32-4-.55-4.6 1.75a8.18 8.18 0 0 0-.25 1.65c-.37 6.3-.93 12.59-.64 18.92.16 3.58-.35 7.19-.35 10.78-.027 3.512.13 7.024.47 10.52.26 2.5 1.89 3.72 4.37 3.94a4.36 4.36 0 0 0 4.71-2.92 18.77 18.77 0 0 0 .58-5.19c0-1.82-1.3-3-2.72-4-.43-.31-.95-1.08-.83-1.46a2.35 2.35 0 0 1 1.36-1.4c2.19-.6 4.15-.21 5.43 2.23A18.61 18.61 0 0 1 59 56.669a5.42 5.42 0 0 1-4.51 5.16c-5.7 1.44-11.49 1.19-17.19 1.14-2.88 0-5.77.08-8.63-.12-2.86-.2-5.81-.71-8.88-1.11.56-5.06 2.7-9.61 2.37-14.86zm7.77-18.2c2.6.69 2.67.71 3.07-1.51a1.93 1.93 0 0 1 2.08-1.84c.64 0 1.27-.11 1.91-.15a2.23 2.23 0 0 0 2.24-2.08 20.85 20.85 0 0 0 .55-3.78 3.41 3.41 0 0 0-1-2.51 9.55 9.55 0 0 0-6.57-1.69 3.53 3.53 0 0 0-1.68.85c-1.44 1.26-2.75 6.44-1.79 8.1a8.1 8.1 0 0 1 1.19 4.61zm-28.43-.12c3.06-2.31 6.08-.89 9.15-.36.15-1.45.32-2.55.37-3.66.05-1.11 0-2.34 0-3.44-5.27-1.58-10.02 2.01-9.51 7.46H1.5zm12.31 5.53a5.87 5.87 0 0 0-1.88 4.49c.26 5.5.36 11 .57 16.51a31.92 31.92 0 0 0 .43 3.18c.59-.36.86-.72.86-1.07.03-7.56.03-15.12.03-23.11h-.01zm-.13-1.58a3.94 3.94 0 0 0 .18-.7c.193-4.28.383-8.564.57-12.85a7.93 7.93 0 0 0 0-1.66.91.91 0 0 0-.58-.62 1 1 0 0 0-.79.37 1.52 1.52 0 0 0-.32.87c-.21 4.13-.42 8.25-.58 12.38a2.15 2.15 0 0 0 1.53 2.21h-.01zm23.38 12.36c.09.66.268 1.306.53 1.92a1.35 1.35 0 0 0 1.85.57c.86-.43 1.46-1.2 1.12-2.09-.16-.42-1.09-.65-1.71-.77a5.84 5.84 0 0 0-1.79.37z"/><path d="M32 20.799c-.48.2-.76.42-1 .37-.24-.05-.35-.39-.53-.6.22-.16.45-.45.67-.44.22.01.41.32.86.67zm3.68.28c-.47.3-.68.51-.92.55-.24.04-.36-.21-.54-.32.14-.22.25-.57.44-.63.19-.06.49.17 1.02.4z"/></g></g></svg>