<svg width="60" height="75" xmlns="http://www.w3.org/2000/svg"><g fill="none" fill-rule="evenodd"><path fill="#F8E71C" d="M24.56 8.36l-3.033 4.972v3.159l1.517 5.502 3.291 2.285h-3.291L10.31 25.45H4.742v.95L2.76 28.479l1.98 1.785 4.635-.999.934.999 11.217 1.687-.908 6.692.908 1.818-2.118 10.632-.998 7.109-.646 4.531h5.279l1.517-5.535 1.774-7.001 5.04.896 1.942 4.412 1.249 5.025 2.083 2.203 2.985-2.203-.89-5.025v-9.948l-.999-5.096.999-3.148v-7.05l10.545-2.594h6.592l-1.595-6.382-4.997 1.899-14.084 1.092h-1.888l3.332-2.991 1.096-4.796V9.363l-5.119-2.17z"/><path fill="#F57C23" d="M25.713 25.07h-9.259l-6.484.692-.76 4.216 11.691 1.544v7.109l1.628.781h14.784l1.249-.781v-8.126l11.235-2.795-.608-4.878-15.58 1.91-.455 2.531-2.578-.885-1.386.885-1.555-.885-1.922 1.322z"/><path fill="#F57C23" d="M21.9 39.344l-3.144 14.133 6.151 1.457 2.086-6.794h4.182l1.733 7.402 5.76-.608-.954-15.59-8.134.407zM23.137 10.012l-1.471 3.292 16.623-.326-.846-2.966z"/><g fill="#000" fill-rule="nonzero"><path d="M36.925.306a10.36 10.36 0 0 1 0 2 14.54 14.54 0 0 0 .18 5.71c.067.395.277.751.59 1a2.25 2.25 0 0 1 1 2.43 3.05 3.05 0 0 0 .75 2.24 3.73 3.73 0 0 1 .75 2.85c-.92.3-1.26 1.11-1.6 2a11.2 11.2 0 0 1-2.9 4.29c-.28.26-.53.55-.91 1 3.17-.26 6.15-.49 9.13-.75.93-.08 1.84-.24 2.77-.33a16.3 16.3 0 0 0 3.51-.84 38 38 0 0 1 5.64-1.08c.43 0 .86.047 1.28.14l-1 1.94c1 .59 2.43.21 3.38 1.3-1 1.22-2.47.67-3.76 1.36a12.49 12.49 0 0 1 1.61 1.13c.26.267.402.628.39 1 0 .22-.5.52-.78.54-1 .05-2-.11-2.7.81-.11.14-.59.1-.83 0a7.47 7.47 0 0 0-5.08-.26c-2.41.63-4.89 1-7.33 1.5-1.32.28-1.35.35-1.44 1.75-.13 2.08.14 4.29-.45 6.23-.92 3-.31 6-.17 8.94.16 3.6.39 7.19.64 10.79a16.2 16.2 0 0 0 .53 2.91 3 3 0 0 1-.21 2.42h-1.52l-1.25 1.42-1.15-1.68-1.4 2.49a5 5 0 0 1-.55-1.2c-.07-.93-.07-1.86-.09-2.79a4.9 4.9 0 0 0-.76-2.71c-.74-1.16-.82-2.75-1.17-4.16a3.49 3.49 0 0 0-.6-1.48 3.78 3.78 0 0 0-.17.87c0 1 .13 2.09.19 3.13.234 4.347.464 8.697.69 13.05v1.22c.06.61.08 1.33-.54 1.5-.45.13-1-.22-1.56-.4-.2-.07-.35-.28-.59-.48-.5.45-.53 1.57-1.84 1.08l-.85-21.63c-1 1.1-1 2.24-1.27 3.23-.27.99-.46 2.16-.8 3.2a14.85 14.85 0 0 0-1 4.39 3 3 0 0 1-1 2.21l-2.33-.18-.6-1-1.79 1.22a11.63 11.63 0 0 1-.45-2.31c0-1.5.22-3 .33-4.5a87.79 87.79 0 0 1 1.76-12.58 16.83 16.83 0 0 0 .42-1.86c.15-1.44.89-2.82 0-4.36-.36-.63 0-1.69.09-2.56.1-1.37.22-2.75.34-4.19-.6-.13-1-.24-1.37-.29l-8.48-1a1.46 1.46 0 0 1-.67-.16c-1.43-1.06-2.87-.53-4.32-.09-.39.12-.77.28-1.16.36-1.41.3-1.68.06-1.68-1.54a5.47 5.47 0 0 1-1.15-.23c-.29-.12-.67-.38-.71-.63-.04-.25.27-.6.51-.78a10.46 10.46 0 0 1 1.24-.63c.4-.22.79-.46 1.33-.78l-1.75-1.25c0-.79.51-.88 1-.88a18.33 18.33 0 0 1 3.65.09c2.85.6 5.68.09 8.52 0 2.55 0 5.11-.15 7.66-.22h2a20.86 20.86 0 0 1-3.16-3.06 20.13 20.13 0 0 1-1.59-4h-.19c-1.34 0-1.53-.21-1-1.33.42-.82 1-1.54 1.51-2.33.44-.59.8-1.235 1.07-1.92a12.39 12.39 0 0 1 6.16-7.65c2-1.09 4.06-2 6.14-2.89a18.07 18.07 0 0 1 2.91-.75zm11.52 23.72c-4.775.15-9.535.61-14.25 1.38-.65 1.18.68 2.55-.89 3.44-.37-.24-.81-.48-1.21-.79-.4-.31-.81-.72-1.2-1.08-1.77 1.9-1.77 1.9-3.51.16-.92-.05-1.23 1.79-2.49.83l.15-2.16c-2.45-.75-12.08-.36-14.48.55-.09.61-.15 1.25-.3 1.87-.23.91.24 1.31 1 1.51a7.49 7.49 0 0 0 1.21.18l8.49.75a1 1 0 0 1 1 1.27c-.233 1.72-.463 3.437-.69 5.15-.15 1.14 0 1.32 1.07 1.55 4.62 1 9.27.52 13.91.23 1.29-.08 1.74-.59 1.78-1.95.07-2.18.51-4.39-.29-6.64 3.38-1.94 7.26-1.89 11-2.94l-.3-3.31zm-11.55 16.17c-2.16.22-4.15-.23-6.12.31l2.67 14.13c1.65-.09 3.11.19 4.66-.76l-1.21-13.68zm-14.79-.2c-.43 1.74-.88 3.29-1.19 4.87-.47 2.38-.84 4.78-1.26 7.17a1.15 1.15 0 0 0 1 1.51c1.13.2 2.26.38 3.54.59.63-2.08 1.26-4 1.78-5.93.44-1.61.77-3.25 1.14-4.89.2-.89.37-1.8.58-2.85l-5.59-.47zm10.36-23.59c-.26.35-.44.65-.66.91-1.1 1.29-1.67 1.26-2.68-.11-.29-.39-.61-.75-1-1.22-.56.46-.94.8-1.35 1.11a7.56 7.56 0 0 1-1.27.88c-.84.4-1.3.2-1.65-.64-.2-.47-.31-1-.51-1.6l-1.49.54c.145.894.342 1.78.59 2.65a6.87 6.87 0 0 0 1.09 2.13c1.59 1.93 6.76 3.06 9.06 2.07l.31-.15c2.06-.86 3.16-2.59 4.13-4.45l-4.57-2.12zm4.54-4.16l-.09-1.84a12.15 12.15 0 0 0-1.36-.16c-2.79 0-5.58 0-8.37.07-1.102.05-2.2.16-3.29.33-.77.1-.9.57-.62 1.26a95.65 95.65 0 0 0 13.73.37v-.03zm13 10.87v2.44c.1 1.31.37 1.63 1.72 1.68a28.14 28.14 0 0 0 3.18-.22c-.45-.71-1.17-1.37-1-1.73.42-1.16-.45-1.87-.61-3l-3.29.83zm-44.21 6.2l3-.54v-2.86l-2.6-.56c.18 1.82-1.4 1.82-2.37 2.55.76.5 2.31-.5 1.99 1.44l-.02-.03zm14 30.6a4.17 4.17 0 0 0 2.86 2l.4-2.87c-1.48-.34-2.81-.91-4.49-.47l-.16 3.32.39.08 1-2.06zm4.14-4.35l-4.22-1.05-.29 2.32a9.84 9.84 0 0 0 3.92.74l.59-2.01zm10.61 3.94c.51 1.49 2 1.07 2.31 1.92l1.95-1.02-.28-1.81-3.98.91zm3.43-3.48a6.6 6.6 0 0 0-4.24.08l.65 1.57c2.41.27 3.37-.16 3.61-1.61l-.02-.04zm-5.42-30.9c-1.87-.25-3.51-.49-5.15-.65-.27 0-.57.29-.85.44l2.77 1.7c.71-2.46 2-.75 3.23-.29v-1.2zM38.195 70.276l1.92-1.3c.86.18 1.13 1.35 2.14 1.22.187.269.294.584.31.91a9.65 9.65 0 0 1-.23 1.49c1 .48 2.15-.45 3.13.53-.33.26-.56.56-.85.63a20.65 20.65 0 0 1-2.39.45c-1.49.2-1.65 0-1.5-1.68a4.33 4.33 0 0 1-.93-.23 5.36 5.36 0 0 1-.84-.64c-.74.18-1.29 1.32-2.29.55-.06 0-.3.06-.41.15-.86.75-1.81.5-2.91.32.15-.35.24-.78.35-.78 1.56-.09 1.9-1.31 2.35-2.44a5.82 5.82 0 0 1 .22-.66.8.8 0 0 1 1.49 0c.19.48.338.975.44 1.48zM22.885 71.876c1.82 0 1.82 0 2.67.62-.26.74-.91.52-1.45.6-.54.08-1.5.48-2 .22s-.57-1.18-.85-1.8a2.38 2.38 0 0 0-.57-.74c.18 1.62-1.64 1.69-2 2.87 0 .14-.54.25-.78.2a4.65 4.65 0 0 0-3 .46c-.21.1-.48.26-.65.19a4.57 4.57 0 0 1-.9-.59c.2-.24.36-.61.61-.69 1.11-.32 2.24-.55 3.42-.83.52-.72.06-2.53 1.87-1.85.14-.16.22-.24.29-.33.41-.53.75-1.43 1.23-1.5.88-.13 1 .88 1.35 1.54.35.66.52 1.16.76 1.63z"/></g></g></svg>