<svg width="41" height="60" xmlns="http://www.w3.org/2000/svg"><g fill="none" fill-rule="evenodd"><path d="M37.974 42.963c-.219-.11-.708-.423-1.041-.585-2.645-1.13-2.645-1.13-1.51-3.66.166-.374.312-.747.5-1.11a36.652 36.652 0 0 0 4.009-20.11C39.28 8.277 31.196 1.215 21.657 1.535c-2.497.154-4.92.88-7.07 2.118-4.93 2.474-8.899 6.43-11.31 11.275C.78 20.181-.324 25.718 1.946 31.335a65.192 65.192 0 0 0 4.821 9.773c1.208 2.017.693 3.624-1.588 5.207 2.187 1.443 3.4 1.287 3.796 3.768.395 2.481 1.011 5.695 1.49 8.387 1.927.111 3.399.958 5.075 0 1.114.555 3.656-.284 4.218-.472 2.624-.454 4.75-.975 7.374-1.408.572-.146 1.03-.137 1.558-.394 1.078.605 6.437-1.03 7.702-1.827-.638-3.893-1.024-6.262-1.156-7.11a1.558 1.558 0 0 1 .108-1.284c.22-.395.6-.682 1.048-.793a14.859 14.859 0 0 0 2.624-1.765c-.593-.252-.822-.343-1.041-.454z" fill="#FFF"/><g fill="#000" fill-rule="nonzero"><path d="M36.569 55.372c-4.08.87-7.88 1.81-11.72 2.46-4.09.69-8.22 1.16-12.34 1.65-2.36.28-3.06-.39-3.43-2.79-.37-2.4-.88-4.55-1.16-6.88a2.23 2.23 0 0 0-2-2.29 6.78 6.78 0 0 1-1.7-.95l2.66-3c-1.52-3-3-5.93-4.43-8.86-3.19-6.55-2.78-13.14 0-19.68 2.6-6.18 7.24-10.47 13.15-13.39 7.79-3.83 16.72-.03 20.92 5.32 3.14 4 4 8.59 3.87 13.5 0 .32-.07.64-.05 1 .28 5.74-1.37 11-3.72 16.16-.2.43-.31.91-.51 1.34-.45 1-.08 1.65.87 2.12.95.47 1.93 1 3 1.59-.63 2-2.47 2.63-3.71 4-.53 2.86 1.28 5.9.3 8.7zm1.59-12.12c-.57-.26-.79-.35-1-.46-.21-.11-.68-.42-1-.58-2.54-1.12-2.54-1.12-1.45-3.63.16-.37.3-.74.48-1.1a37.35 37.35 0 0 0 3.85-19.94c-.626-9.145-8.39-16.148-17.55-15.83a15.17 15.17 0 0 0-6.79 2.1 24.64 24.64 0 0 0-10.86 11.18c-2.4 5.21-3.46 10.7-1.28 16.27a65.53 65.53 0 0 0 4.63 9.69c1.16 2 1.87 3.43-.32 5 2.1 1.43 2.06 1.44 2.44 3.9.38 2.46.87 5.15 1.33 7.82 1.85.11 3.39.4 5-.55-.21-1.08-.41-2.08-.6-3.09-.56-3-1.15-6-1.64-8.95-.07-.42.21-1.23.49-1.31.81-.25 1.08.43 1.14 1.12v1.44c.56 3.053 1.14 6.103 1.74 9.15a1.81 1.81 0 0 0 2.4 1.63c2.52-.45 5.05-.78 7.57-1.21a8.17 8.17 0 0 0 1.59-.6c-.71-4.14-1.4-8.06-2-12-.17-1-.57-2.16.62-3.18.228.446.409.916.54 1.4.36 2.53.65 5.07 1 7.59a12.19 12.19 0 0 0 2.09 6l4.92-1.29c-.14-1.14-.23-2.08-.37-3-.18-1.26-.41-2.51-.6-3.77a1.59 1.59 0 0 1 1.11-2.06 14.25 14.25 0 0 0 2.52-1.75v.01z"/><path d="M23.739 22.282a15.74 15.74 0 0 1 1.11-2.91 3.45 3.45 0 0 1 5.83-.34 5.93 5.93 0 0 1 .27 6.78 3.94 3.94 0 0 1-4 1.61 3.23 3.23 0 0 1-3-3l-.21-2.14zm-8.72 3.1a5.92 5.92 0 0 1-3.12 4.5c-2.34.85-4.51-1.21-4.28-4.1a7.28 7.28 0 0 1 .36-1.63c.58-1.8 2.42-3.11 3.94-2.84a4.21 4.21 0 0 1 3.1 4.07zm3.42 13.08c-.13-.46-.46-1-.38-1.45.39-2.18.85-4.35 1.37-6.5a1.4 1.4 0 0 1 .89-.9c.444.002.86.222 1.11.59.87 1.69 1.66 3.41 2.42 5.15.4.92 0 1.51-.95 1.79l-4.46 1.32zm4.45 17.19c-.45.45-1.26.64-1.44-.33-.63-3.26-1.08-6.56-1.58-9.85 0-.12.13-.28.24-.48 1.24.12 1 1.11 1.16 1.91.5 2.8 1.05 5.59 1.62 8.75z"/></g></g></svg>