<svg width="79" height="70" xmlns="http://www.w3.org/2000/svg"><path d="M26.689 59.37a26.24 26.24 0 0 1 1.12-2.86 3.05 3.05 0 0 0-.72-3.82 10.14 10.14 0 0 0-3-1.8c-.82-.37-1.54.16-2.13.74l-8 7.76a2.27 2.27 0 0 1-.52.23c-.11-.33-.4-.76-.29-.93a13 13 0 0 1 1.66-2.16c1.76-1.71 3.51-3.44 5.4-5a4.18 4.18 0 0 0 1.6-3.85c-.15-1.81-.57-3.54-2.24-4.66a1.59 1.59 0 0 0-1.82-.22c-1.72.86-3.48 1.63-5.24 2.37a4.3 4.3 0 0 1-1.42 0c.43-1.13 1.4-1.19 2.12-1.52a26.65 26.65 0 0 1 3.6-1.41c1.63-.48 2-1.72 2.18-3.14a4 4 0 0 0-1.81-3.58 3.12 3.12 0 0 0-1.92-.21c-3.71.27-7.42.6-11.12.86a15.44 15.44 0 0 1-2.58-.08c-.25 0-.47-.31-.71-.48l.08-.42h2c4-.33 8.08-1 12.11-.93 3.14.07 4.32-1.9 5.66-3.9a2.69 2.69 0 0 0-1.38-3.9 17.24 17.24 0 0 1-2.32-1.14c-.35-.24-.74-1-.61-1.25.32-.66.83-.24 1.31.05 1.23.75 2.51 1.45 3.61 2.08a6.09 6.09 0 0 0 3.73-3.4c1.36-3.06.14-5.36-1.82-7.56l-3.12-3.54.24-.31c.3.13.7.18.89.4a314.972 314.972 0 0 1 5 6.16c1.17 1.47 1.84 1.67 3.29.5a15.23 15.23 0 0 0 2.5-2.78c.22-.29.1-.89 0-1.32-.22-1.11-.47-2.21-.78-3.29-.17-.61-.43-1.29.43-1.42.86-.13.73.7.84 1.26.24 1.17.46 2.35.8 3.49a2.16 2.16 0 0 0 3.28 1.34 3.38 3.38 0 0 0 2-2.93c.23-3.91.64-7.8 1-11.7a1.63 1.63 0 0 1 .51-1c.78 2.44.15 4.82-.16 7.24s-.38 4.86-.56 7.27a6.59 6.59 0 0 0 7.94-3.09c.48-.94 1-1.89 1.54-2.78.15-.23.64-.23 1-.33 0 .35.14.77 0 1-.72 1.34-1.49 2.65-2.29 3.94a2.32 2.32 0 0 0 .1 2.59c1.39 2.56 3.72 3 6.28 2.88.28 0 .57-.28.82-.47 2.18-1.72 4.353-3.447 6.52-5.18.62-.5 1.21-1.06 2.11-.52 0 1.07-.94 1.28-1.5 1.73-2.13 1.69-4.33 3.29-6.47 5-1.19.94-1.53 3.85-.47 4.83.759.48 1.589.838 2.46 1.06-1.18 1.19-.61 2.59-.51 4a3.39 3.39 0 0 0 1.6 2.61c2 1.46 2 1.44 4.62 1.47 4.59.06 9.17.15 13.76.25.58 0 1.15.12 1.77.19-.12 1.16-.84 1.19-1.61 1.15-2.19-.12-4.38-.29-6.57-.34-2.92-.07-5.85-.07-8.78 0-2.16 0-3.86 3.21-2.7 5 .18.29.68.37.94.63a4.2 4.2 0 0 1 .55.89c-.33.16-.66.33-1 .47a.53.53 0 0 1-.38-.08c-1.37-.79-2.3 0-3.07.95a8.86 8.86 0 0 0-2 8.55c.08.25.35.6.27.72-1.07 1.5.37 2.14 1 3 .83 1 1.81 1.93 2.7 2.91.209.283.386.588.53.91-.64.75-1.06.3-1.4-.09-.88-1-1.71-2-2.55-3.05a5.73 5.73 0 0 0-3-2.07 5.26 5.26 0 0 0-5.04 1.66c-.71.94-.18 1.78 0 2.65.13.64 1 1.43-.07 1.83-.89.33-.89-.72-1.2-1.25a4.82 4.82 0 0 0-7.39-.71 3.24 3.24 0 0 0-.56 1.81c-.21 3.31-.35 6.62-.51 9.93 0 .7-.4.73-1.11.49l.51-10.75c-.52-.56-1.05-1.12-1.57-1.7a4.06 4.06 0 0 0-5.07-.9 2.46 2.46 0 0 0-.83 1c-.27.53-.41 1.12-.64 1.67-.23.55-.66.76-1.42.3zm29.12-18.8a4.14 4.14 0 0 0-5.56 2.29c-.54 1.25-1.38 2.77-1.08 3.9.41 1.51 1.79 2.75 3.41 4.22-.68-4.3.95-7.39 3.23-10.41zm-10.44 14a6.6 6.6 0 0 1 6-2.93c-1-1.29-1.85-2.32-2.71-3.31a1.56 1.56 0 0 0-1-.6c-1.56 0-3.2-.06-4.27 1.47l1.98 5.37zm-13.13-4.42a7.78 7.78 0 0 0-2.3 4.76c2.53-.72 4.47.29 6.19 1.92 1.45-3.76-.59-6.37-3.89-6.68zm11.7 5.49l.31-.46-1.68-4.78a10.22 10.22 0 0 0-1.23 0c-3.66.53-4.33 1.34-3.92 4.31 0 .31.08.62.14 1.13a6.17 6.17 0 0 1 6.38-.2zm-20.52-7.47c2.42-1.56 3-2.4 2.28-4.24a10.59 10.59 0 0 0-2.11-3 1.72 1.72 0 0 0-1.45-.19 13.15 13.15 0 0 0-2.12 1c2.17 1.83 2.74 4.15 3.4 6.43zm5.74 4.44c-.07 0 0 0 0 0 .23-.55.46-1.1.67-1.66a2.87 2.87 0 0 0-1.45-3.78 2 2 0 0 0-1.63.06 18.88 18.88 0 0 0-2.25 2.06l4.66 3.32zm15.88-33.56c2.55 3.46 4.53 3.77 7 1.09-2.6-.14-4-2.06-5.58-3.79-.46.76-.82 1.31-1.14 1.89a5.08 5.08 0 0 0-.28.81zm-6-.35c2.95 1.81 5.36.54 6.13-3.22l-5.94 1.2-.19 2.02zm3.51 20.12l2.82 3.43c1.3-1.1 2.34-2.14 2.46-3.86-.63-.31-1.21-.6-1.8-.87-1.87-.87-2.1-.8-3.46 1.3h-.02zM55.599 27c-2.53.21-2.5 1.53-2.32 3.84.15 1.77 2.12 2.54 4.53 2-1.77-2.15-1.77-2.15-2.21-5.84zm2.82 7.51c-.72 0-1.25-.11-1.77-.11a3.27 3.27 0 0 0-2.77 2.63c-.18 1 .31 1.55 2 2a5.31 5.31 0 0 0 1.05.1l1.49-4.62zm-21.87 15.88V46l-3-.67-1.34 3.2 4.34 1.86zm7.73-29.68c-1.93 2.65-1.76 3.35 1.53 5.29l2.31-2.4-3.84-2.89zm-21 5.84c.73.91 1.46 1.42 2.35.91a6.65 6.65 0 0 0 2.18-1.78c.32-.44.15-1.23.19-1.86 0-.2-.09-.43 0-.59.6-1.16-.2-1.56-1.1-2.26-.64 2.4-1.53 4.37-3.57 5.59l-.05-.01zm29.28 6.62l-.75-4.51-3.45 1.44.73 3.08 3.47-.01zm-33.28 2.13l1.46 4.86c1.89-.43 2.53-1.36 2.11-3.1-.42-1.74-1.55-2.34-3.57-1.76zm.94-1.56c2.38.4 3.49-.4 3.65-2.74.06-.92 0-1.84 0-2.83l-1.06-.17-2.59 5.74zm17.59 16.13l4.25-1.12-.9-2.54h-3.35v3.66zm13.14-22.06L49.699 24l-3.36 3 1.38 2.09 3.23-1.28zm-22.45-7.17c1.19 2.11 1.87 2.21 3.58.5a18.68 18.68 0 0 1 1.48-1.14l-.65-2.52-4.41 3.16zm24.54.57a11 11 0 0 0-1.36 1.16c-.71.87-.49 3.25.31 4.1.59.62 1.14.51 2.59-.54.08-.06.09-.23.13-.35-.98-1.26-.98-1.26-1.66-4.37h-.01zm-5 24.06c.94-2 1.14-4.46 3.35-5.84-1.79-.66-1.78-.65-2.44.42a17.68 17.68 0 0 1-1.64 2.45c-1.27 1.44-1.25 1.7.72 2.97h.01zm-16.94 2.48a15.55 15.55 0 0 1 1-1.77c.65-.88.2-1.46-.45-2-1-.8-1.43-.76-2.31.2-.35.38-.67.79-1.07 1.26l2.83 2.31zm-5.06-8.07l.29-.47-1.44.61 2.66 4.76 1.77-2.53-3.28-2.37zm23.77-5v2.66l2.44.59 1.24-3.44h-1.65c-.51 0-1.29.13-2.03.2v-.01zm-15-14.68c2.87-.09 3.56-.87 3.14-3.26l-3.55.61.41 2.65zm7 24.05l2.6-1-2.6-3.43c-1 .22-1.43.56-1.13 1.42.3.86.69 1.84 1.13 3.03v-.02zm-14.05-5.27l2.66 2.5 2-2.15-1.41-1.76-3.25 1.41zm.83-8.38c-.52 1.11-1.34 1.86-1 3.18h2.86l.61-2.11-2.47-1.07zm14.39 17l4-1.16-1.76-2.1-2.76 1.54.52 1.72zm-4-26.74v2.59h2.67l1-2.18-3.67-.41zm-5.54 8.51L31.809 27l-2.4 2c1.97 1.74 2.33 1.76 4.04.13l-.01.04zm-6.21 8.54c1.14-.42 1.89-.65 2.59-1 .31-.15.75-.6.7-.78-.1-.36-.49-.85-.81-.9a22 22 0 0 0-2.9-.03l.42 2.71zm3.58-13.88l1.26 1.45 2.11-1-.66-2.73-2.71 2.28zm7-.28l.24-2.63-3.13.6.51 2.2 2.38-.17zm.24 21l2.48-.15c-.41-1.21-.67-2.15-1.06-3a1.18 1.18 0 0 0-.86-.52c-.16 0-.52.42-.53.67-.08.89-.04 1.8-.04 3.03l.01-.03zm-13.55-11c.73.24 1.2 0 1.48-.79s.56-1.19.74-1.81c.153-.4.153-.84 0-1.24-.31-.45-.83-.92-1.31-.48l-.91 4.32zm17.84-8.22c-1.42 1.8-1.59 2.38-1 2.9.83.69 1.5.37 2.81-1.4l-1.81-1.5zm-6.61 15.57c-.27.5-.51.89-.69 1.3-.18.41-.29.85-.5 1.45l1.93.85c.7-2.59.65-2.85-.74-3.6zm-10.52-6.09l-1.7.19.89 3.94c.88-.15 1.55-.38 1.28-1.51-.18-.79-.28-1.57-.47-2.62zm9.46 5.65c-1.72-.59-1.9-.47-3.13 1.8l1.89.85 1.24-2.65zm-3.86-14.78l-1-1.22-2.63 3.89c.95.24 1.79-.35 3.63-2.67zm14.09 9.81c1.08.51 2 1.26 3.31 1.28.07-2.2-1.06-2.69-3.27-1.29l-.04.01zm-10-6.54a2.94 2.94 0 0 0-.05-3.28l-2.04.77 2.09 2.51zm-2.78 4.92l3.56-.29.06-.41c-.71-.29-1.4-.62-2.12-.85-1.12-.32-1.15-.32-1.44 1.55h-.06zm6.69-9.26v3.06c1.35-.36 1.45-1.43 1.89-2.45l-1.89-.61zm8.26 6.39c-2 .44-2 .44-1.52 2.47l2.2-.13-.68-2.34zm-.69-1.35l-1.2-1.53-1.63 1.38c.96 1.5 1.74.65 2.83.13v.02zm-14 6.94l1.22 1.37 1.56-1.96-.25-.29-2.53.88zm5.13-9l.18-2.45c-1.56.3-1.56.31-.19 2.45h.01zm1.9 4.33l1.95-2.25c-1.55-.31-1.55-.31-1.96 2.25h.01zm2.62 1.58c.69.11 1.36.33 1.76-.5a.54.54 0 0 0-.25-.46 1.2 1.2 0 0 0-1.52.95l.01.01zm-1.15 2.4l-.39.58 1.3.68a5 5 0 0 0 .29-.62c-.38-.24-.79-.43-1.2-.64z"/></svg>