<svg width="41" height="76" xmlns="http://www.w3.org/2000/svg"><g fill="none" fill-rule="evenodd"><path fill="#B8E986" d="M7.962 13.145L4.337 9.959H2.93v6.268l2.516 3.164 3.551.911 3.386 11.374-.78 13.148-6.157 14.064v7.49l1.228 6.832h16.709l6.204 1.361h4.412l1.422-4.006V62.98l-5.834-28.558V25.74l2.236-5.437 5.14-2.356 1.954-4.801V9.959l-3.496.948-2.53 2.238-1.068-3.186-3.648-2.33h-6.25l-8.58 1.302-3.684 1.976z"/><path fill="#FFF" d="M13.721 22.556l3.51 4.314 1.645-5.178zm8.159-.974l1.906 4.493 1.557-2.247 1.178-2.246z"/><path fill="#D0021B" d="M21.7 31.999h-6.88v5.753l4.938 2.04 3.25.651 3.278-1.6v-6.844zm-2.214 8.025l-5.122 11.503v5.074l2.561 2.855-2.561 1.123 1.438 3.18h-2.584l-4.423-1.904-3.148 1.905 1.26 9.008h14.792l12.677 2.295 1.363-6.316V63.76l-5.33-1.113-4.96 2.257v-3.049l-1.84-2.4 3.733-4.255-3.733-9.225z"/><g fill="#000" fill-rule="nonzero"><path d="M8.06 21.25a3.91 3.91 0 0 0-1-.38A6.1 6.1 0 0 1 3.61 19C1.25 16.93.79 14.14.99 11.18a5.67 5.67 0 0 1 .51-1.73 1.76 1.76 0 0 1 3.12-.5c.83.91 1.68 1.81 2.65 2.85.27-1 .51-2 .76-2.91a12.39 12.39 0 0 1 2.68-5.13 10.42 10.42 0 0 1 3.24-2.32 15.15 15.15 0 0 1 10-1 16.49 16.49 0 0 1 5.44 2.31 5 5 0 0 1 2 2.3c.72 1.8 1.35 3.64 2 5.46 0 .12.1.23.22.48l2-1.42c.6-.42 1.19-.86 1.83-1.22a1.5 1.5 0 0 1 2.41 1.13 10 10 0 0 1 0 5 9.71 9.71 0 0 1-3.68 5.33 4.67 4.67 0 0 1-1.58.53c-.7.17-1.41.27-2.47.47.536.41 1.1.782 1.69 1.11 1.84.83 3.27 2.25 4.93 3.33a.94.94 0 0 1 .11 1.55 2.41 2.41 0 0 1-.58.52c-1.12.63-2.26 1.24-3.39 1.85A6.2 6.2 0 0 0 31.7 34a2.63 2.63 0 0 0 .34 1.73 26.54 26.54 0 0 1 3.4 9.72c.43 3.87 1.1 7.71 1.37 11.59a94.16 94.16 0 0 1 0 10.14 42.67 42.67 0 0 1-.83 5.9 7.89 7.89 0 0 1-.83 2.25 1.25 1.25 0 0 1-1.44.64c-.8-.18-1.61-.33-2.42-.46-3.07-.49-6.14-1-9.22-1.42a18.49 18.49 0 0 0-3.89 0 33.58 33.58 0 0 1-6.09.17c-1.07-.1-2.14-.21-3.21-.27a4.18 4.18 0 0 0-1.15.16 2 2 0 0 1-2.66-1.55 65.81 65.81 0 0 1-1-6.79c-.25-2.93-.41-5.88-.36-8.82A55.2 55.2 0 0 1 5.07 44.1 43 43 0 0 1 7.73 36a10.45 10.45 0 0 1 1.18-1.86.87.87 0 0 0-.11-1.36c-1.147-.98-2.31-1.943-3.49-2.89-.33-.27-.76-.43-1.09-.7a2.07 2.07 0 0 0-1.68-.5 1.47 1.47 0 0 1-1.48-.61c-.48-.65-.4-1.07.24-1.62 1.14-1 2.27-2 3.37-3a7.21 7.21 0 0 1 3-1.81c.06-.07.14-.19.39-.4zM7.5 71.8c1.85.1 3.66.24 5.48.28 1.6 0 3.2 0 4.79-.08a20.17 20.17 0 0 1 5.56.19 28.18 28.18 0 0 0 2.82.47c1.89.24 3.78.45 5.67.67.5.06 1 .09 1.59.15a42.37 42.37 0 0 0 1-7.4 14.84 14.84 0 0 1-2-1 16.21 16.21 0 0 1-1.68-1.52 29.08 29.08 0 0 0-2.77 1.36 5.09 5.09 0 0 1-3.51.56 1.69 1.69 0 0 1-1.37-2.39c.23-.54.5-1.07.76-1.62l-.55-.34c-1.27-.83-1.4-1.67-.41-2.76.58-.64 1.16-1.29 1.78-1.89 1-1 1-1 .34-2.28-.84-1.6-2-3-2.47-4.83-.67-2.5-1.37-5-2.07-7.49a5.08 5.08 0 0 0-.44-.8c-.45 5.58-2.64 10.26-5.09 14.81.54 1.46.57 1.42 1.86 2.4a4.15 4.15 0 0 1 1.19 1.47c.35.73 0 1.21-.73 1.48l-1.42.47c.39.54.73.93 1 1.37.58 1 .15 1.84-1 1.91a19.5 19.5 0 0 1-3.24 0 6.38 6.38 0 0 1-2-.73c-.5-.295-.974-.63-1.42-1L6.4 64.89a35.63 35.63 0 0 0 1.1 6.91zm1.8-58.67c0 1.47-.08 2.94 0 4.4a24.49 24.49 0 0 0 2.51 8.93c.12.26.34.6.57.66.85.24 1.16 1 1.59 1.59.354.542.755 1.05 1.2 1.52a2.63 2.63 0 0 0 2.07.89 17.09 17.09 0 0 0 5.7-1 9.93 9.93 0 0 0 6.07-6.48 49.19 49.19 0 0 0 2.09-7.21 29.29 29.29 0 0 0 .13-5.43c0-.32-.17-.85-.36-.91-.94-.27-1.79-1.05-2.81-.8-2.1.53-4 1.45-4.86 3.64-.31.76-.68 1.49-1 2.24a1.32 1.32 0 0 1-2.49 0 1.74 1.74 0 0 1-.19-.75c0-1.7-1.22-2.48-2.48-3a6.55 6.55 0 0 0-6.49.94c-.36.22-.73.44-1.25.77zM23.5 32.5v.87a3.11 3.11 0 0 1-4.5 2.46 1.69 1.69 0 0 1-.78-2c.14-.288.3-.565.48-.83l-1.86.2c.049.56.129 1.118.24 1.67.74 2.77 2.25 4.37 5 4.45 1.16 0 1.51-.16 2-1.28.66-1.89.17-3.72-.58-5.54zm14.3-21.45c-.21-.05-.3-.05-.3-.05a11.52 11.52 0 0 1-1.91 1.29 3.66 3.66 0 0 0-2.4 4.19 8.25 8.25 0 0 1-.25 1.86 1.82 1.82 0 0 0 1.92-.41 8.29 8.29 0 0 0 2.94-6.88zM3.7 11c-1.2 2.91.58 7.52 3.8 8-.16-1.36-.31-2.68-.49-4a1.73 1.73 0 0 0-.3-.83c-.83-1-1.7-2-2.57-3-.07-.08-.22-.1-.44-.17zm25.65 50.66l-2.46-4.05-2.07 1.91c.41.17.64.28.88.36 1.17.4 1.4.9.87 2-.22.45-.5.87-.83 1.45a9 9 0 0 0 3.61-1.67zM13.87 63l-1.75-2.9-1.5 1.27c.65 1.77 1.88 1.78 3.25 1.63zm-.23-4.86l-1.2 1.61 2.45-.22-1.25-1.39z"/><path d="M19.58 22.4c-1.08 1.67-1 3.77-2.37 5.53-.46-.6-.85-1-1.17-1.51-.53-.78-1-1.63-1.55-2.38a17.53 17.53 0 0 0-1.37-1.3 4.17 4.17 0 0 1-.49-.8 2.65 2.65 0 0 1 .83-.45c.94-.11 1.9-.1 2.84-.22 3.69-.47 7.41-.49 11.12-.72 1-.06 1.06.1 1.17 1.14l-1.83.25c-.25.71-.44 1.46-.76 2.16a21.37 21.37 0 0 1-1.4 2.61c-.38.59-.86.55-1.18-.1-.46-.93-.84-1.89-1.22-2.85-.61-1.52-.85-1.66-2.62-1.36zm-1.78 0l-3 .32a10.88 10.88 0 0 0 2.14 2.79c.25-1.09.94-1.89.86-3.11zm4.8-.21c.63 1 .61 2.16 1.56 3.14l1.24-3.45-2.8.31zm5.39-6.3c0 1.38-.55 2.18-1.38 2.13a2.17 2.17 0 0 1-1.69-1.88 1.54 1.54 0 0 1 1.58-1.68c1.09.05 1.52.44 1.49 1.43zm-10.19.87a6.76 6.76 0 0 1-.67 1.16 1.59 1.59 0 0 1-1.74.48 1.44 1.44 0 0 1-.64-1.68 3.67 3.67 0 0 1 .44-1.06c.31-.53.66-1 1.39-1 .47.05 1 .9 1.09 1.61v.39l.13.1z"/></g></g></svg>