<svg width="54" height="60" xmlns="http://www.w3.org/2000/svg"><g transform="translate(-1 -1)" fill="none" fill-rule="evenodd"><path fill="#B8E986" d="M3.151 6.355l-.983 9.524v14.793l.983 12.955v6.415l1.405 8.801h41.739l6.849-2.024-.733-24.22V15.88L51.77 5.662l-3.516-1.563-20.598-.912z"/><ellipse fill="#FFF" cx="15.5" cy="33.5" rx="6.5" ry="7.5"/><ellipse fill="#FFF" cx="39.5" cy="33" rx="7.5" ry="7"/><path fill="#FFF" d="M19.768 49.308l2.86 5.329 3.125-5.33zm9.919-.237l2.99 5.888 3.608-6.935z"/><g fill="#000" fill-rule="nonzero"><path d="M53.348 24.48c0 4.23-.1 8.47 0 12.7.17 5.91.55 11.81.77 17.71.1 2.63-.12 3.07-2.68 3.73a36.5 36.5 0 0 1-7.27 1.17c-5.82.29-11.66.4-17.49.49-6.06.09-12.13.16-18.2.08-6.26-.08-5.16-.32-6.22-5.82a67.4 67.4 0 0 1-.8-11.21c-.233-9.84-.39-19.688-.47-29.54 0-2.47.28-4.94.41-7.41a1.76 1.76 0 0 1 1.56-1.82c.39-.08.79-.14 1.18-.19 5.78-.75 11.55-1.48 17.33-2.24a120.12 120.12 0 0 1 25.83-.49c4.11.34 5.73 1.93 5.83 6 .14 5.59 0 11.18 0 16.77l.22.07zM3.788 7.79a11.22 11.22 0 0 0-.35 1.54c-.17 3.59-.48 7.18-.43 10.76.107 7.5.33 14.996.67 22.49.21 4.52.7 9 1.13 13.54.14 1.43.84 2 2.43 2.06 2.87.1 5.75.19 8.62.14 8.86-.13 17.72-.28 26.58-.52a55.46 55.46 0 0 0 7.58-.81c1.86-.31 2-.59 1.94-2.39 0-1.12-.1-2.23-.14-3.35-.24-7.81-.67-15.63-.83-23.46-.12-5.83.09-11.66.11-17.49a32.87 32.87 0 0 0-.35-3.34 13.44 13.44 0 0 0-2.64 1.09 36.88 36.88 0 0 0-4.27 3.47 102.47 102.47 0 0 0-14.69 17.6c-.35.54-1.13 1.31-1.51 1.21a3.37 3.37 0 0 1-1.66-1.54c-.63-1-.9-2.26-1.6-3.19-2-2.67-4.06-5.3-6.23-7.84-3.32-3.87-7.58-6.55-11.9-9.14a14.12 14.12 0 0 0-2.46-.83z"/><path d="M22.908 56.03c-.79-1-1.37-1.59-1.81-2.28a13.53 13.53 0 0 1-1.05-2.15 3.2 3.2 0 0 0-2.65-2.13 7.61 7.61 0 0 1-1.77-.76l.08-.52a4.43 4.43 0 0 1 1.42-.4c3.34.15 6.68.56 10 .51a50 50 0 0 0 7.32-1c1.41-.23 2.82-.56 4.21-.92 1-.26 1.52.09 1.87 1.11-.34.26-.69.78-1.06.79-2.32.06-2.87 1.9-3.72 3.47-.85 1.57-1.63 2.89-2.56 4.53-2.65-1.12-2.88-3.8-4.26-5.59-2.45-.51-2.45-.46-3.52 1.53-.67 1.16-1.51 2.29-2.5 3.81zm9.32-3.14h.59l1.4-3.41-3.44.55 1.45 2.86zm-8.53-2.72l-2.46-.25 1.53 3 .93-2.75zm-.6-15.65c.55 3-1.68 4.78-3.44 6.81a2.07 2.07 0 0 1-1.08.46c-3.49.82-8.37-1.43-10-4.58-1.63-3.15-.07-9.12 4.68-10.79 2.39-.84 4.62-1 6.67.82 2.05 1.82 3.55 4.1 3.17 7.28zm-1.92-.43a6.79 6.79 0 0 0-1.6-4.48 3.62 3.62 0 0 0-5.38-.82 11.66 11.66 0 0 0-2.94 2.72c-1.62 2.35-1.94 5.85 1.66 7.74 3.6 1.89 5.65 1.26 7.34-2a16.5 16.5 0 0 0 .92-3.16zm26.33-1a7.71 7.71 0 0 1-6.79 8 8.9 8.9 0 0 1-8.49-3.93c-1.72-2.38-1.12-5 .24-7.45 2.07-3.73 5.33-5.06 9.41-4.66 2.7.26 5.12 3.1 5.55 6.41.07.51.06 1.07.08 1.63zm-1.93-.79c.42-1.41-.9-2.53-1.46-3.9a2.63 2.63 0 0 0-2.9-1.61c-3.2.16-5.6 1.43-7 4.49-1.23 2.73-.85 5.19 1.31 6.86a5.62 5.62 0 0 0 7.64-.21 7.42 7.42 0 0 0 2.41-5.63zm-16.72 8.86c-.92-.6-2.14.16-2.7-1.16a3.85 3.85 0 0 1 3.89-.54c.53.16 1 1.37 1 2.13a10.14 10.14 0 0 1-.54 2.71c-1.99.04-1.99.04-1.65-3.14z"/><path d="M20.038 32.85c0 1.54-2.79 5.12-4.22 5.37-1.43.25-3.34-1.65-3.35-3.12a6.94 6.94 0 0 1 3.51-5 2.86 2.86 0 0 1 4.06 2.75zm19.72 4.73c-2.7 0-4.06-1.41-3.83-3.61a5 5 0 0 1 2.13-3.81c1.67-1.13 2.81-1.09 4.11 0a3.44 3.44 0 0 1 1.1 4.44c-.79 1.7-1.96 2.94-3.51 2.98z"/></g></g></svg>